<?xml version="1.0" standalone="no"?>
<!DOCTYPE svg PUBLIC "-//W3C//DTD SVG 1.1//EN" "http://www.w3.org/Graphics/SVG/1.1/DTD/svg11.dtd" >
<svg xmlns="http://www.w3.org/2000/svg" xmlns:xlink="http://www.w3.org/1999/xlink" version="1.1">
<metadata>
Created by FontForge 20161003 at Sun Sep 24 04:38:32 2017
 By www-data
Copyright (c) 2007 by Prinya R. nont. All rights reserved.
</metadata>
<defs>
<font id="DBSharpXItalic" horiz-adv-x="0" >
  <font-face 
    font-family="DBSharpXItalic"
    font-weight="400"
    font-style="italic"
    font-stretch="normal"
    units-per-em="1000"
    panose-1="2 0 5 6 6 0 0 2 0 4"
    ascent="800"
    descent="-200"
    x-height="388"
    cap-height="552"
    bbox="-346 -329 1018 845"
    underline-thickness="35"
    underline-position="-164"
    unicode-range="U+0020-F882"
  />
<missing-glyph horiz-adv-x="414" 
d="M422 400v-14h6q7 0 7 9q0 1 -1.5 3t-5.5 2h-6zM425 385h-3v-14h-5v34h11q12 0 12 -10q0 -7 -3 -8.5t-7 -1.5l10 -14h-5zM428 366q13 0 17.5 7t4.5 13q0 24 -22 24q-23 0 -23 -24q0 -8 5.5 -14t17.5 -6zM428 413q13 0 19 -8t6 -19q0 -8 -6 -15.5t-19 -7.5q-12 0 -19 7.5
t-7 15.5q0 11 7 19t19 8zM201 316q16 -1 37.5 -4t43 -7t39.5 -9.5t27 -12.5q-20 40 -62 61.5t-86 21.5q-34 0 -65 -13t-51 -40q18 2 36 3t36 1h22.5t22.5 -1zM375 395v-142q-48 15 -109.5 25.5t-130.5 10.5q-48 0 -94 -6q6 22 19 42.5t33 36t46.5 24.5t58.5 9q31 0 56 -7
t43.5 -17t31.5 -22t19 -21q0 -1 0 6.5t-0.5 18.5t-0.5 23v19h28zM153 127q0 8 -5.5 12t-11.5 4q-7 0 -12 -4t-5 -12t5 -11.5t12 -3.5q6 0 11.5 3.5t5.5 11.5zM32 139q0 23 9 41t24 30t34 18t39 6t38.5 -5.5t33 -16.5t23 -28t8.5 -41v-116h106v202h28v-228h-189v26h29v119
q0 30 -22 45t-54 15q-30 0 -54 -16.5t-24 -46.5v-107l58 58q-5 2 -13 10t-8 23q0 18 11 28.5t29 10.5q17 0 27.5 -11.5t10.5 -27.5q0 -14 -5.5 -21.5t-9.5 -11.5q-2 -2 -17 -16.5t-33 -31.5q-11 -10 -22.5 -21t-24.5 -24h-32v138z" />
    <glyph glyph-name="plusminus" unicode="&#x2b;&#x2d;" horiz-adv-x="540" 
d="M551 364q-3 -5 -7 -19.5t-8 -30.5t-9 -41q-16 8 -33.5 10.5t-37.5 2.5h-95l-20 -95q-5 -20 -9 -42t3 -40h-86q15 19 19.5 40.5t9.5 41.5l20 95h-95q-22 0 -39.5 -1.5t-36.5 -11.5l18 88q15 -9 33.5 -10.5t38.5 -1.5h95l20 97q4 17 6.5 35.5t-3.5 33.5h87q-12 -16 -17 -33
t-10 -36l-20 -97h95q22 0 40.5 3t40.5 12zM144 6q-22 0 -39.5 -1.5t-37.5 -11.5l19 88q14 -9 32.5 -10.5t38.5 -1.5h253q22 0 41 3t40 12q-3 -5 -7 -19.5t-8 -30.5t-9 -41q-16 8 -33 10.5t-37 2.5h-253z" />
    <glyph glyph-name="ellipsis" unicode="&#x2e;&#x2e;&#x2e;" horiz-adv-x="1000" 
d="M907 58q-5 -26 -27.5 -44.5t-48.5 -18.5t-40 18.5t-9 44.5t27.5 44t48.5 18t40 -18t9 -44zM575 57q-6 -26 -28 -44.5t-48 -18.5t-41 18.5t-9 44.5q5 26 27.5 44t48.5 18t40 -18t9 -44h1zM241 58q-5 -26 -27.5 -44.5t-48.5 -18.5t-40.5 18.5t-9.5 44.5t27.5 44t48.5 18
t40 -18t9 -44h1z" />
    <glyph glyph-name="lessequal" unicode="&#x3c;&#x3d;" horiz-adv-x="440" 
d="M422 133q-2 4 -4 6q-5 4 -12 9q-18 8 -50.5 22t-71 31t-79 34.5t-75.5 32.5q-9 4 -17 5q-2 1 -4.5 1t-4.5 1l15 72q2 1 5 1t5 1l10 2t10 3q41 15 89.5 33t94 35t83.5 31t59 22q9 4 16 9q3 2 6 5l-17 -80l-6 2q-3 1 -12 -1q-42 -14 -89 -31t-89 -32l-48 -18t-49 -18
q39 -16 82 -35q35 -15 75.5 -32t75.5 -31q4 -3 12 -1q2 1 3.5 1t3.5 1zM86 190q31 -13 60 -25.5t57 -24.5q24 -10 49.5 -20.5t50 -21t46.5 -19.5t39 -16q4 -3 12 -1q2 1 3.5 1t3.5 1l-17 -81q-2 4 -4 6q-5 4 -12 9q-18 8 -50.5 22t-70.5 30.5t-79 34.5t-75 33q-5 2 -9.5 3
t-8.5 2q-2 1 -4.5 1t-4.5 1z" />
    <glyph glyph-name="greaterequal" unicode="&#x3e;&#x3d;" horiz-adv-x="440" 
d="M74 133l17 81l6 -2t13 1q40 14 88 31t90 32l48 18t49 17q-20 9 -41 18t-41 18q-35 15 -76 32t-75 31q-3 1 -6.5 1.5t-6.5 -0.5q-2 -1 -3.5 -1t-3.5 -1l17 80q1 -1 1.5 -2t2.5 -3q4 -5 12 -9q18 -8 50 -22t70.5 -31t79.5 -35t76 -33q9 -4 17 -5q2 -1 4.5 -1t4.5 -1
l-15 -72q-3 -1 -6 -1t-5 -1q-4 -1 -9 -2t-10 -3q-41 -15 -89 -32.5t-93.5 -34t-84 -31t-59.5 -22.5q-5 -2 -8.5 -4.5t-7.5 -4.5q-5 -3 -6 -6zM420 125q-2 -1 -5 -1t-5 -1q-10 -1 -19 -5q-41 -15 -89 -32.5t-94 -34.5t-84.5 -31t-59.5 -22q-5 -2 -8.5 -4.5t-7.5 -4.5
q-5 -3 -6 -6l17 81l6 -2t13 1q20 7 46 16t54.5 19.5t58.5 21t59 20.5q34 12 68.5 24.5t69.5 25.5z" />
    <glyph glyph-name="fongmanfunnuthai" unicode="&#xe4f;&#x22;" horiz-adv-x="500" 
d="M464 606q-1 -5 -2 -9.5t-3 -9.5l-25 -89q-1 -4 -1.5 -8t-1.5 -9t-1.5 -9t-0.5 -6h-40q3 8 4 16l2 16l15 89q4 18 3 34h57zM360 621q-4 -10 -6.5 -18t-5.5 -16l-24 -89l-2 -8t-2 -9t-1.5 -9t-0.5 -6h-39q2 8 3 16t3 16l14 89q4 17 3 34h58zM521 211q-9 -45 -35 -85
t-62.5 -69t-80.5 -46t-89 -17t-81.5 17t-60.5 46t-33 69t0 85q10 45 36 84t62.5 68.5t80 46.5t88.5 17t82 -17t61 -46.5t33 -68.5t-1 -84zM473 211q8 36 1.5 68t-25.5 55.5t-47.5 37t-64.5 13.5t-70 -13.5t-62.5 -37t-49 -55.5t-28.5 -68t-1 -68t25.5 -55.5t47 -37.5
t64.5 -14t70.5 14t63 37.5t48.5 55.5t28 68zM418 211q-5 -24 -19 -45.5t-33.5 -37t-43 -25t-47.5 -9.5t-43.5 9.5t-32 25t-17.5 37t0 45.5t19 45t33.5 36.5t43 25t47.5 9.5t43.5 -9.5t32 -25t17.5 -36.5t0 -45zM373 211q7 32 -9 52.5t-48 20.5t-57 -20.5t-32 -52.5
t9.5 -52.5t48.5 -20.5t56.5 20.5t31.5 52.5z" />
    <glyph glyph-name="dochadaphinthuthai" unicode="&#xe0e;&#xe3a;" horiz-adv-x="420" 
d="M389 2q-7 -34 -21.5 -63.5t-34.5 -51t-44 -33t-50 -10.5l-54 2l-23 27l-18 -24q-12 6 -22 6h-62q4 5 10 14t13 18t14 16t13 9q1 0 6 0.5t11 0.5q12 0 18.5 -4t13.5 -15q24 0 46 1t41 8t34 22.5t24 44.5q4 11 6.5 21t4.5 21l62 294q4 22 -2 36.5t-17.5 23.5t-26 12.5
t-26.5 3.5q-29 0 -60.5 -11t-65.5 -34q13 -11 16.5 -18t1.5 -16l-65 -309q-8 2 -15 4t-19 2h-73l3 16q22 9 31 23.5t14 39.5l36 167q7 32 7 59t-20 48q22 12 43.5 24.5t47 23t56.5 17t71 6.5q56 0 86 -13.5t42 -35t11 -49t-7 -55.5zM346 -236q-5 -20 -22.5 -35t-37.5 -15
t-32 15t-7 35t22.5 35t37.5 15t32 -15t7 -35z" />
    <glyph glyph-name="topatakphintuthai" unicode="&#xe0f;&#xe3a;" horiz-adv-x="420" 
d="M393 22q-6 -31 -17 -62t-29.5 -56.5t-46.5 -42t-68 -18.5h-10l-11 39l-92 -43l-12 36q-30 -26 -47.5 -30t-29.5 -4q-21 0 -26.5 14.5t-10.5 33.5q-2 11 -3 20.5t-3 14.5l47 1q9 0 16 4l12 -43l108 54l10 -31q32 -1 54.5 2.5t38 14.5t25 30.5t16.5 51.5l63 298
q4 22 -2 36.5t-17.5 23.5t-26 12.5t-26.5 3.5q-29 0 -60.5 -11t-65.5 -34q13 -11 16.5 -18t1.5 -16l-65 -309q-8 2 -15 4t-19 2h-73l3 16q22 9 31 23.5t14 39.5l36 167q7 32 7 59t-20 48q22 12 43.5 24.5t47 23t56.5 17t71 6.5q56 0 86 -13.5t42 -35t11 -49t-7 -55.5z
M346 -236q-5 -20 -22.5 -35t-37.5 -15t-32 15t-7 35t22.5 35t37.5 15t32 -15t7 -35z" />
    <glyph glyph-name="dochadasarauthai" unicode="&#xe0e;&#xe38;" horiz-adv-x="420" 
d="M389 2q-7 -34 -21.5 -63.5t-34.5 -51t-44 -33t-50 -10.5l-54 2l-23 27l-18 -24q-12 6 -22 6h-62q4 5 10 14t13 18t14 16t13 9q1 0 6 0.5t11 0.5q12 0 18.5 -4t13.5 -15q24 0 46 1t41 8t34 22.5t24 44.5q4 11 6.5 21t4.5 21l62 294q4 22 -2 36.5t-17.5 23.5t-26 12.5
t-26.5 3.5q-29 0 -60.5 -11t-65.5 -34q13 -11 16.5 -18t1.5 -16l-65 -309q-8 2 -15 4t-19 2h-73l3 16q22 9 31 23.5t14 39.5l36 167q7 32 7 59t-20 48q22 12 43.5 24.5t47 23t56.5 17t71 6.5q56 0 86 -13.5t42 -35t11 -49t-7 -55.5zM250 -306l12 57q4 18 3.5 32t-14.5 21
l2 6h67q20 0 29 4l-25 -120h-74z" />
    <glyph glyph-name="topataksarauthai" unicode="&#xe0f;&#xe38;" horiz-adv-x="420" 
d="M393 22q-6 -31 -17 -62t-29.5 -56.5t-46.5 -42t-68 -18.5h-10l-11 39l-92 -43l-12 36q-30 -26 -47.5 -30t-29.5 -4q-21 0 -26.5 14.5t-10.5 33.5q-2 11 -3 20.5t-3 14.5l47 1q9 0 16 4l12 -43l108 54l10 -31q32 -1 54.5 2.5t38 14.5t25 30.5t16.5 51.5l63 298
q4 22 -2 36.5t-17.5 23.5t-26 12.5t-26.5 3.5q-29 0 -60.5 -11t-65.5 -34q13 -11 16.5 -18t1.5 -16l-65 -309q-8 2 -15 4t-19 2h-73l3 16q22 9 31 23.5t14 39.5l36 167q7 32 7 59t-20 48q22 12 43.5 24.5t47 23t56.5 17t71 6.5q56 0 86 -13.5t42 -35t11 -49t-7 -55.5z
M250 -306l12 57q4 18 3.5 32t-14.5 21l2 6h67q20 0 29 4l-25 -120h-74z" />
    <glyph glyph-name=".notdef" horiz-adv-x="414" 
d="M422 400v-14h6q7 0 7 9q0 1 -1.5 3t-5.5 2h-6zM425 385h-3v-14h-5v34h11q12 0 12 -10q0 -7 -3 -8.5t-7 -1.5l10 -14h-5zM428 366q13 0 17.5 7t4.5 13q0 24 -22 24q-23 0 -23 -24q0 -8 5.5 -14t17.5 -6zM428 413q13 0 19 -8t6 -19q0 -8 -6 -15.5t-19 -7.5q-12 0 -19 7.5
t-7 15.5q0 11 7 19t19 8zM201 316q16 -1 37.5 -4t43 -7t39.5 -9.5t27 -12.5q-20 40 -62 61.5t-86 21.5q-34 0 -65 -13t-51 -40q18 2 36 3t36 1h22.5t22.5 -1zM375 395v-142q-48 15 -109.5 25.5t-130.5 10.5q-48 0 -94 -6q6 22 19 42.5t33 36t46.5 24.5t58.5 9q31 0 56 -7
t43.5 -17t31.5 -22t19 -21q0 -1 0 6.5t-0.5 18.5t-0.5 23v19h28zM153 127q0 8 -5.5 12t-11.5 4q-7 0 -12 -4t-5 -12t5 -11.5t12 -3.5q6 0 11.5 3.5t5.5 11.5zM32 139q0 23 9 41t24 30t34 18t39 6t38.5 -5.5t33 -16.5t23 -28t8.5 -41v-116h106v202h28v-228h-189v26h29v119
q0 30 -22 45t-54 15q-30 0 -54 -16.5t-24 -46.5v-107l58 58q-5 2 -13 10t-8 23q0 18 11 28.5t29 10.5q17 0 27.5 -11.5t10.5 -27.5q0 -14 -5.5 -21.5t-9.5 -11.5q-2 -2 -17 -16.5t-33 -31.5q-11 -10 -22.5 -21t-24.5 -24h-32v138z" />
    <glyph glyph-name=".null" 
 />
    <glyph glyph-name="nonmarkingreturn" horiz-adv-x="283" 
 />
    <glyph glyph-name="space" unicode=" " horiz-adv-x="250" 
 />
    <glyph glyph-name="exclam" unicode="!" horiz-adv-x="306" 
d="M333 552q-5 -8 -8 -16t-5 -15q-4 -13 -7.5 -24t-6.5 -22l-60 -233q-5 -19 -10 -37t-9 -36h-74q5 17 8 37t5 36l40 234q1 9 3 20.5t2 24.5q1 8 1.5 15.5t-0.5 15.5h121zM232 53q-6 -29 -29 -48t-51 -19q-24 0 -38 19t-9 44q6 29 28.5 48t49.5 19q26 0 40 -18.5t9 -44.5z
" />
    <glyph glyph-name="quotedbl" unicode="&#x22;" horiz-adv-x="288" 
d="M367 553l-4 -10t-3 -10q-2 -6 -3.5 -11.5t-3.5 -11.5l-29 -104q-2 -5 -3 -10.5t-3 -11.5l-3 -18h-55q4 10 5.5 20t3.5 20l16 104q2 11 3.5 21.5t0.5 21.5h78zM236 553q-6 -13 -9 -22.5t-6 -20.5l-29 -104q-2 -5 -3 -10.5t-3 -11.5q-2 -8 -3 -18h-55q4 10 5.5 20t3.5 20
l16 104q4 20 4 43h79z" />
    <glyph glyph-name="numbersign" unicode="#" horiz-adv-x="498" 
d="M558 404q-14 -19 -23 -40t-16 -39q-9 4 -14.5 4.5t-12.5 0.5h-63l-36 -98h68q6 0 26 7l-26 -75q-15 5 -21 5h-70l-46 -129q-4 -9 -5.5 -17.5t0.5 -22.5h-84q12 14 17 23.5t8 17.5l46 128h-78l-46 -129q-4 -9 -5 -17.5t0 -22.5h-83q11 14 16 23.5t8 17.5l47 128h-59
q-8 0 -13 -0.5t-9.5 -1.5t-10.5 -3l-15 -5q14 18 23.5 39.5t16.5 39.5q13 -4 21 -5t18 -1h51l36 98h-59q-8 0 -17.5 -1t-31.5 -9q14 17 23.5 39t17.5 41q11 -5 17.5 -6t15.5 -1h56l43 118q2 8 4 17t2 23h81q-11 -14 -16 -23.5t-7 -17.5l-43 -117h77l43 118q3 8 5 17t1 23h84
q-12 -14 -17.5 -23.5t-8.5 -17.5l-43 -117h68q7 0 13.5 1.5t25.5 9.5zM287 330l-35 -98h78l35 98h-78z" />
    <glyph glyph-name="dollar" unicode="$" horiz-adv-x="504" 
d="M463 167q-14 -64 -60 -110t-118 -56l-9 -46q-4 -15 -4 -36h-61q4 9 6.5 17.5t4.5 18.5l10 44q-72 3 -129 28l-1 56q26 -16 55 -26t58 -12q19 -2 43.5 1t46.5 12.5t39.5 27t23.5 44.5q7 34 -7.5 56.5t-39.5 40t-55 32.5t-54.5 34.5t-37.5 46.5t-4 68q13 60 60 97t119 47
l5 30q2 9 3 17.5t2 18.5h61q-4 -10 -6.5 -18.5t-5.5 -17.5l-6 -29q26 -4 45 -8t35 -11l-9 -44q-27 15 -60.5 19t-64 -3.5t-53 -26t-28.5 -48.5q-6 -28 8.5 -48t39 -36.5t53.5 -32t53 -35.5t37 -47t5 -65z" />
    <glyph glyph-name="percent" unicode="%" horiz-adv-x="697" 
d="M696 164q-8 -36 -24 -67.5t-37.5 -54t-48 -35.5t-56.5 -13q-58 0 -82 46t-8 121q6 30 20 59.5t35 53t48.5 38.5t61.5 15q33 0 53.5 -14.5t31 -38t11.5 -52.5t-5 -58zM667 552q-16 -12 -26.5 -23t-20.5 -24l-351 -448q-14 -17 -24 -30q-3 -5 -5.5 -11.5t-2.5 -15.5h-93
q14 11 25.5 23t21.5 24l351 447q6 8 12 15.5t11 14.5q8 12 9 28h93zM369 395q-8 -37 -23.5 -68.5t-37 -54t-48 -35.5t-57.5 -13q-57 0 -81.5 45.5t-7.5 123.5q6 29 19.5 58.5t34.5 53t48.5 38.5t61.5 15q33 0 53.5 -14.5t31 -37.5t11.5 -52t-5 -59zM614 159q2 10 5 29.5
t2.5 38.5t-6.5 33t-21 14q-17 0 -29.5 -14t-21.5 -33t-14 -38t-7 -29q-2 -11 -5 -29.5t-2.5 -37.5t6.5 -32.5t22 -13.5q15 0 27.5 13.5t21.5 32t14.5 37t7.5 29.5zM291 400q2 10 4.5 28t1.5 35t-7.5 29.5t-22.5 12.5q-17 0 -30 -14.5t-22 -34t-14.5 -39.5t-7.5 -30
t-4.5 -28.5t-2 -36.5t7 -31.5t21.5 -13.5q16 0 29 15t23 35.5t16 41t8 31.5z" />
    <glyph glyph-name="ampersand" unicode="&#x26;" horiz-adv-x="598" 
d="M564 -8q-24 0 -45 3.5t-40 12.5t-37 24.5t-37 40.5q-27 -27 -50 -43.5t-45.5 -26.5t-44.5 -13.5t-46 -3.5q-39 0 -69 11t-49.5 30.5t-26.5 47.5t0 61q11 50 56 92t111 85q-25 45 -38.5 77t-6.5 64q6 28 21.5 49t37 34.5t48 20t53.5 6.5q24 0 43.5 -4.5t36.5 -17.5
q17 -14 24 -34.5t2 -45.5q-7 -30 -26 -51.5t-43 -41.5q-9 -8 -20 -16t-22 -17l75 -108q22 -31 44 -60.5t45 -58.5t49.5 -55.5t61.5 -53.5zM396 467q5 22 -4 36.5t-37 14.5q-17 0 -32 -8.5t-25 -22t-12.5 -30.5t5.5 -33q2 -5 5 -10t5 -10q3 -5 6.5 -10.5t12.5 -20.5
q32 21 51 46.5t25 47.5zM269 274q-57 -45 -79.5 -85.5t-20 -72t24.5 -51.5t54 -23.5t68 11.5t66 54z" />
    <glyph glyph-name="quotesingle" unicode="'" horiz-adv-x="158" 
d="M241 550q-7 -14 -10 -25t-7 -22l-28 -103q-5 -14 -6.5 -22t-3.5 -22l1 -2h-67l1 2q5 14 6.5 23l3.5 21l15 103q2 12 3.5 23t-0.5 24v2h94z" />
    <glyph glyph-name="parenleft" unicode="(" horiz-adv-x="252" 
d="M154 -109q-40 73 -47.5 167t13.5 192t68.5 191.5t118.5 165.5h47q-58 -80 -97.5 -172t-59 -186t-19 -186t22.5 -172h-47z" />
    <glyph glyph-name="parenright" unicode=")" horiz-adv-x="252" 
d="M6 -109q56 80 96 172t60.5 186t20.5 186t-23 172h47q39 -72 47 -166t-13 -192t-68.5 -191.5t-118.5 -166.5h-48z" />
    <glyph glyph-name="asterisk" unicode="*" horiz-adv-x="378" 
d="M386 446q-14 2 -31 -3q-9 -2 -18.5 -5t-24.5 -8l10 -18q8 -17 17.5 -25t25.5 -16l-67 -42q1 37 -17 72l-10 4q-17 -19 -29.5 -37.5t-20.5 -37.5l-48 41q18 7 29 13.5t27 22.5l15 15l1 12q-14 5 -28 7t-28 2q-7 0 -13.5 -0.5t-13.5 -1.5l38 67q11 -15 26.5 -24t34.5 -16
l10 6q11 44 -2 78h71q-14 -17 -21 -36t-11 -39l5 -9q23 7 43.5 15.5t36.5 25.5l10 -65z" />
    <glyph glyph-name="plus" unicode="+" horiz-adv-x="540" 
d="M530 264q-3 -5 -7.5 -19.5t-8.5 -30.5t-9 -41q-15 8 -32.5 10.5t-37.5 2.5h-95l-20 -95q-5 -20 -9 -42t2 -40h-86q16 19 20.5 40.5t9.5 41.5l20 95h-95q-22 0 -39.5 -1.5t-37.5 -11.5l19 88q14 -9 32.5 -10.5t38.5 -1.5h95l21 97q4 17 6 35.5t-3 33.5h87q-13 -16 -18 -33
t-9 -36l-21 -97h95q22 0 41 3t41 12z" />
    <glyph glyph-name="comma" unicode="," horiz-adv-x="252" 
d="M198 55q-6 -29 -25.5 -53.5t-43.5 -47.5q-11 -11 -29.5 -24.5t-32.5 -13.5q-11 0 -23 3l6 3q28 20 53.5 41.5t43.5 52.5q-21 -3 -34 1t-20 11.5t-8.5 17.5t0.5 20q5 23 24 38.5t42 15.5q26 0 39.5 -19t7.5 -46z" />
    <glyph glyph-name="hyphen" unicode="-" horiz-adv-x="441" 
d="M194 184q-22 0 -39.5 -0.5t-37.5 -10.5l19 88q14 -9 33 -9.5t39 -0.5h129q20 0 38.5 0.5t37.5 9.5l-19 -88q-15 10 -32 10.5t-39 0.5h-129z" />
    <glyph glyph-name="period" unicode="." horiz-adv-x="252" 
d="M200 58q-5 -26 -27.5 -44.5t-48.5 -18.5t-40 18.5t-9 44.5t27.5 44t48.5 18t40 -18t9 -44z" />
    <glyph glyph-name="slash" unicode="/" horiz-adv-x="327" 
d="M451 590q-27 -14 -51 -54l-278 -481q-12 -20 -12.5 -32t2.5 -21v-2h-113l1 2q26 13 49 54l279 481q11 20 11.5 32t-1.5 21v2h113v-2z" />
    <glyph glyph-name="zero" unicode="0" horiz-adv-x="411" 
d="M441 249q-11 -51 -34 -97.5t-54.5 -82.5t-70 -57.5t-79.5 -21.5t-70.5 20t-46 54.5t-20 82t8.5 101.5q11 51 32.5 98.5t52.5 84t70 58t85 21.5q45 0 74.5 -21.5t44.5 -57.5t16.5 -83.5t-9.5 -98.5zM354 251q9 40 11.5 78t-3.5 67.5t-20 47.5t-38 18t-46 -18t-40.5 -47.5
t-32.5 -67.5t-23 -78t-11 -78t4 -67.5t20.5 -47.5t38.5 -18q23 0 44.5 18t39.5 47.5t32.5 67.5t23.5 78z" />
    <glyph glyph-name="one" unicode="1" horiz-adv-x="411" 
d="M161 0l1 5q11 8 23.5 26t16.5 35l65 307l-82 2l3 13q31 14 55 28.5t47 30.5t43.5 31.5t44.5 32.5h4l-94 -445q-5 -18 1 -35.5t14 -25.5l-1 -5h-141z" />
    <glyph glyph-name="two" unicode="2" horiz-adv-x="411" 
d="M353 0h-310q18 23 40.5 52t44 57t40.5 52t30 38q10 15 31.5 42t43 56t39 55.5t20.5 40.5q5 25 -7.5 41t-36.5 22t-57.5 0.5t-70.5 -22.5l28 54q55 20 101.5 22t79.5 -11t48.5 -39.5t7.5 -63.5q-3 -15 -13.5 -34.5t-25.5 -42t-33 -46.5l-36 -48q-35 -45 -69.5 -89
t-63.5 -82q51 -8 102 -4t102 18z" />
    <glyph glyph-name="three" unicode="3" horiz-adv-x="411" 
d="M399 149q-11 -54 -48 -89t-87 -53t-106.5 -19.5t-107.5 12.5v53q51 -20 91 -20q28 0 56 7.5t51.5 22t40.5 35t23 46.5q5 24 -2.5 44.5t-25 35.5t-44 23.5t-58.5 8.5h-27l8 36h7q15 0 40.5 3t51.5 13t46.5 28.5t25.5 50.5t-11 49.5t-43.5 23.5t-62.5 2t-68 -15l22 46
q61 17 110.5 16.5t82.5 -14.5t48.5 -39t9.5 -56q-4 -16 -12 -32.5t-23.5 -31.5t-40.5 -28t-64 -22q42 -6 67.5 -19.5t38 -32t14.5 -40.5t-3 -45z" />
    <glyph glyph-name="four" unicode="4" horiz-adv-x="411" 
d="M410 113h-74l-17 -78q-4 -16 6 -35h-110q16 20 19 35l17 78h-215l309 382h73l-71 -334q30 0 53 3t46 13zM310 391l-182 -230h133z" />
    <glyph glyph-name="five" unicode="5" horiz-adv-x="414" 
d="M400 156q-10 -47 -40.5 -83.5t-76.5 -58t-105.5 -26t-127.5 12.5l-2 56q33 -15 74.5 -20.5t80 3.5t68.5 35t40 74q10 46 -6.5 74t-48 42t-72 15.5t-79.5 -6.5l57 221h266l-12 -57q-20 6 -44.5 8t-49.5 2t-49.5 -2t-43.5 -4l-31 -126q53 4 94.5 -4.5t68.5 -29t37.5 -52.5
t1.5 -74z" />
    <glyph glyph-name="six" unicode="6" horiz-adv-x="411" 
d="M427 172q-9 -42 -29 -75.5t-48.5 -57t-63 -36t-73.5 -12.5q-44 0 -76 15t-51 42t-23.5 65t5.5 84q13 62 48.5 116t86.5 95t115 67t135 32l-15 -32q-114 -33 -187 -102.5t-97 -183.5q-5 -21 -5.5 -48t6.5 -52t23 -42t45 -17q23 0 42 12t34 31.5t25 43t15 46.5q3 16 1 39.5
t-14 43.5t-37.5 31t-69.5 3l25 32q5 1 10.5 2t12.5 2q50 6 83.5 -4.5t52.5 -31.5t24.5 -49.5t-0.5 -58.5z" />
    <glyph glyph-name="seven" unicode="7" horiz-adv-x="411" 
d="M220 39q-6 -11 -6.5 -19.5t6.5 -19.5h-118l264 446q-63 7 -123 5.5t-121 -20.5l38 64h324z" />
    <glyph glyph-name="eight" unicode="8" horiz-adv-x="411" 
d="M417 139q-8 -39 -27.5 -66.5t-47.5 -45t-62 -26t-71 -8.5q-41 0 -73.5 8.5t-54.5 25.5t-31 42t-2 57q8 38 41.5 71t105.5 57q-28 19 -44.5 34.5t-25 30t-9 29t3.5 31.5q13 63 65.5 94.5t130.5 31.5q81 0 114 -33.5t22 -85.5q-3 -15 -10 -29t-21.5 -27.5t-38 -26
t-58.5 -24.5q58 -37 80 -67t13 -73zM382 370q8 40 -11 67t-64 27q-13 0 -28.5 -3t-29.5 -10t-25 -18.5t-15 -28.5q-5 -25 3.5 -42.5t24 -30.5t35 -22.5t36.5 -18.5q29 19 49.5 39.5t24.5 40.5zM330 115q4 20 -1 34t-16 25q-6 6 -14 12t-16 11t-16.5 10t-15.5 10l-39 25
q-39 -21 -64 -46.5t-32 -54.5q-9 -45 16.5 -74t73.5 -29q18 0 37.5 4t37 13t31 24t18.5 36z" />
    <glyph glyph-name="nine" unicode="9" horiz-adv-x="411" 
d="M450 299q-13 -62 -48 -116t-86 -95t-115 -67t-135 -31l15 32q112 32 186 101.5t98 183.5q4 21 4 48t-7 52t-22.5 42t-43.5 17q-24 0 -43.5 -13t-34 -32.5t-24.5 -43t-14 -44.5q-3 -15 -2.5 -38t12 -43t37 -31.5t72.5 -4.5l-23 -32q-6 -1 -11.5 -2t-11.5 -2
q-50 -6 -83.5 5t-52.5 32t-24.5 49.5t0.5 58.5q9 42 29 75.5t48 57t63 36t74 12.5q44 0 75.5 -15t50 -42.5t23 -65.5t-5.5 -84z" />
    <glyph glyph-name="colon" unicode=":" horiz-adv-x="252" 
d="M257 325q-6 -26 -28 -44.5t-48 -18.5t-40.5 18.5t-8.5 44.5q5 26 27.5 44t48.5 18t40 -18t9 -44zM200 58q-5 -26 -27.5 -44.5t-48.5 -18.5t-40 18.5t-9 44.5t27.5 44t48.5 18t40 -18t9 -44z" />
    <glyph glyph-name="semicolon" unicode=";" horiz-adv-x="252" 
d="M257 325q-6 -26 -28 -44.5t-48 -18.5t-40.5 18.5t-8.5 44.5q5 26 27.5 44t48.5 18t40 -18t9 -44zM198 55q-6 -29 -25.5 -53.5t-43.5 -47.5q-11 -11 -29.5 -24.5t-32.5 -13.5q-11 0 -23 3l6 3q28 20 53.5 41.5t43.5 52.5q-21 -3 -34 1t-20 11.5t-8.5 17.5t0.5 20
q5 23 24 38.5t42 15.5q26 0 39.5 -19t7.5 -46z" />
    <glyph glyph-name="less" unicode="&#x3c;" horiz-adv-x="440" 
d="M401 33q-2 4 -4 6q-5 4 -12 9q-18 8 -50.5 22t-71 31t-79 34.5t-75.5 32.5q-9 4 -17 5q-2 1 -4.5 1t-4.5 1l15 72q2 1 5 1t5 1q4 1 9 2t10 3q42 15 90 33t94 35t84 31t59 22q9 4 16 9q3 2 6 5l-17 -80l-6 2q-3 1 -13 -1q-40 -14 -87.5 -31t-89.5 -32q-25 -9 -49 -18
t-49 -18q39 -16 82 -35q35 -15 76 -32t76 -31q4 -3 12 -1q2 1 3.5 1t3.5 1z" />
    <glyph glyph-name="equal" unicode="=" horiz-adv-x="540" 
d="M528 236q-14 6 -23 7.5t-26 1.5h-307q-16 0 -29.5 -1.5t-31.5 -7.5h-2l18 84h2q18 -6 30 -7t27 -1h307q18 0 27.5 1.5t25.5 6.5h2l-18 -84h-2zM499 100q-14 6 -23 7.5t-26 1.5h-307q-16 0 -29.5 -1.5t-31.5 -7.5h-2l18 84h2q18 -6 30 -7t27 -1h307q18 0 27.5 1.5
t25.5 6.5h2l-18 -84h-2z" />
    <glyph glyph-name="greater" unicode="&#x3e;" horiz-adv-x="440" 
d="M431 175q-3 -1 -6 -1t-5 -1q-4 -1 -9 -2t-10 -3q-41 -15 -89 -32.5t-93.5 -34t-84 -31t-59.5 -22.5q-5 -2 -8.5 -4.5t-7.5 -4.5q-5 -3 -6 -6l17 81l6 -2t13 1q40 14 87.5 31t89.5 32l48 18t49 17q-20 9 -41 18t-41 18q-35 15 -75.5 32t-75.5 31q-9 2 -12 1q-2 -1 -3.5 -1
t-3.5 -1l17 80q1 -1 1.5 -2t2.5 -3l4.5 -4.5t7.5 -4.5q18 -8 50 -22t70.5 -31t79 -35t75.5 -33q4 -2 9 -3t9 -2q2 -1 4.5 -1t4.5 -1z" />
    <glyph glyph-name="question" unicode="?" horiz-adv-x="390" 
d="M426 422q-6 -27 -16.5 -48t-25 -38.5t-33 -33t-39.5 -31.5q-18 -14 -35.5 -30t-22.5 -38q-1 -3 -3 -14.5t-4 -21.5h-82l6 37q3 22 12 38.5t21.5 30t28 26t32.5 26.5q25 20 41.5 42.5t21.5 54.5q4 24 -5.5 38.5t-24.5 22.5t-32 10.5t-28 2.5q-14 0 -37 -2.5t-46 -13.5
l27 63q24 13 54.5 19t54.5 6q35 0 63.5 -10.5t46.5 -29.5t25 -46t0 -60zM253 53q-6 -29 -29 -48t-51 -19q-24 0 -38 19t-9 44q6 29 28.5 48t49.5 19q26 0 40 -18.5t9 -44.5z" />
    <glyph glyph-name="at" unicode="@" horiz-adv-x="608" 
d="M599 142q-57 -72 -129.5 -111t-153.5 -39q-60 0 -107.5 22.5t-77.5 61t-41 90t1 110.5q11 53 42.5 104t77.5 91t103.5 64.5t121.5 24.5q51 0 96.5 -17.5t75 -50.5t38 -81.5t-13.5 -110.5q-15 -41 -42 -76.5t-59.5 -59.5t-66.5 -35t-63 -3q-17 5 -26.5 14t-11.5 30
q-26 -25 -53.5 -35t-50.5 -10t-38.5 8.5t-24 22t-10.5 31.5t2 37q7 33 27.5 69t50 66.5t65.5 50.5t75 20q33 0 55 -28l7 16h83l-115 -194q-16 -27 -2.5 -34t40.5 5.5t58 43.5t50 81q13 36 8 69t-25.5 59t-56.5 41.5t-85 15.5q-48 0 -93.5 -19t-83 -50.5t-64 -73t-36.5 -86.5
q-10 -46 -2 -87t32 -72.5t63 -50t91 -18.5q57 0 104.5 23t98.5 71h66zM428 356q3 14 -4.5 18.5t-14.5 4.5q-12 0 -26 -10t-29 -26.5t-29 -36t-25.5 -39t-19 -36t-9.5 -26.5q-3 -15 4.5 -20t16.5 -5q11 0 25 11t28 28t28.5 37.5t25.5 40t19 35.5t10 24z" />
    <glyph glyph-name="A" unicode="A" horiz-adv-x="534" 
d="M372 0q12 11 17.5 18.5t8.5 21.5q1 5 -0.5 25t-4 43t-5.5 43.5t-4 27.5h-204q-4 -7 -15.5 -27.5t-24 -44.5t-23 -44.5t-11.5 -27.5q-2 -11 -0.5 -17.5t9.5 -17.5h-107q19 17 32.5 34t21.5 31l213 372q10 17 20 37t14 37q6 22 -12 41h123l66 -438q3 -17 5 -34.5t7 -34.5
q0 -3 1 -5.5t1 -4.5q4 -11 10 -19t14 -16h-152zM340 466l-136 -240h175z" />
    <glyph glyph-name="B" unicode="B" horiz-adv-x="433" 
d="M448 162q-8 -38 -28 -68t-47 -51t-58.5 -32t-62.5 -11h-212q15 15 23 29t11 28l93 439q3 14 1 28t-11 28h216q23 0 43.5 -7t35 -21t21.5 -35.5t3 -49.5q-7 -38 -38.5 -75t-79.5 -57q51 -12 76 -51t14 -94zM388 412q4 15 2.5 32.5t-9 31.5t-21.5 23.5t-33 9.5
q-3 0 -11 -0.5t-18.5 -1t-22 -2t-21.5 -4.5l-37 -174q6 0 15 -0.5t18.5 -1.5t17.5 -1.5t11 -0.5q22 0 40 8t32 21t23.5 29t13.5 31zM370 176q3 20 -1.5 40t-15.5 35.5t-28.5 25t-40.5 7.5q-3 0 -13 -1t-22 -1.5t-24 -1.5t-18 -1l-48 -226q12 -2 27.5 -4t32.5 -3q28 -2 54 7
t46 26.5t33.5 42t17.5 54.5z" />
    <glyph glyph-name="C" unicode="C" horiz-adv-x="472" 
d="M435 0q-36 -6 -73 -9t-69 -3q-54 0 -99.5 19.5t-76 57t-42 92t3.5 123.5q13 62 46.5 116.5t82 94.5t111 60t133.5 13l109 -11l-13 -77q-50 30 -108 35.5t-110.5 -17t-94 -73.5t-58.5 -134q-11 -53 -5 -96t27.5 -74.5t57 -50t82.5 -21.5q29 -2 64.5 5.5t70.5 21.5z" />
    <glyph glyph-name="D" unicode="D" horiz-adv-x="518" 
d="M558 273q-11 -52 -37 -101t-66 -87.5t-93.5 -61.5t-119.5 -23h-203q16 15 24 29t11 28l93 438q3 14 1 28t-12 29h193q76 0 121.5 -26.5t68 -68t25.5 -90.5t-6 -94zM469 273q7 34 6 73.5t-14 73.5t-39.5 56.5t-71.5 22.5q-14 0 -42.5 -2t-53.5 -2l-94 -441q23 -5 47 -6
t35 -1q36 0 71 14.5t66 43t54.5 70.5t35.5 98z" />
    <glyph glyph-name="E" unicode="E" horiz-adv-x="376" 
d="M347 0h-309q16 14 23.5 27.5t10.5 28.5l94 439q3 16 1 29t-12 28h272q3 0 12 3l-15 -74q-14 13 -27.5 17.5t-27.5 4.5h-114l-40 -188h107q5 0 17 5l4 -1l-14 -67q-15 12 -34 12h-90l-45 -209q30 -5 54.5 -7t43.5 -2q18 0 33 0.5t29.5 3t29 8.5t31.5 17z" />
    <glyph glyph-name="F" unicode="F" horiz-adv-x="331" 
d="M407 482q-12 13 -26.5 17t-27.5 4h-96l-39 -187h91q7 0 15 5l5 -1l-15 -67q-16 11 -34 11h-73l-45 -203q-3 -14 -1 -30t12 -31h-134q16 15 24 31t11 30l93 434q3 14 1 28t-12 29h254q5 0 13 4z" />
    <glyph glyph-name="G" unicode="G" horiz-adv-x="493" 
d="M466 15q-42 -14 -79 -20.5t-76 -6.5q-63 0 -113 18.5t-82 55.5t-42.5 92t5.5 129q13 63 46.5 115t80.5 89t106 57.5t123 20.5q27 0 56 -3t56 -11l-16 -74q-22 18 -47.5 27t-57.5 9q-49 0 -91.5 -19t-76 -50.5t-56 -72.5t-31.5 -85q-8 -38 -4.5 -81.5t21 -80t50.5 -61
t84 -24.5q8 0 21.5 1.5t33.5 6.5l36 165q4 18 1.5 31.5t-9.5 25.5h115z" />
    <glyph glyph-name="H" unicode="H" horiz-adv-x="518" 
d="M347 0q16 19 21.5 35t7.5 26l45 208h-214l-45 -208q-2 -10 -2 -26t8 -35h-128q16 15 24 30.5t11 30.5l93 435q3 14 1 28t-12 28h128q-16 -17 -22 -32t-8 -23l-37 -175h214l38 175q2 8 2 23t-8 32h128q-16 -14 -24 -28t-11 -28l-93 -435q-3 -14 -1 -30t12 -31h-128z" />
    <glyph glyph-name="I" unicode="I" horiz-adv-x="238" 
d="M300 552q-24 -21 -32 -57l-92 -433q-4 -16 -2.5 -32.5t9.5 -29.5h-129q13 13 21 29.5t12 32.5l92 433q6 34 -8 57h129z" />
    <glyph glyph-name="J" unicode="J" horiz-adv-x="242" 
d="M299 552q-26 -25 -32 -58l-114 -535q-6 -25 -24.5 -47.5t-47 -41.5t-63.5 -33.5t-74 -23.5q20 22 40 40.5t37 38.5t30 41t18 47l110 514q6 33 -8 58h128z" />
    <glyph glyph-name="K" unicode="K" horiz-adv-x="455" 
d="M441 -3q-37 -2 -60.5 1t-37.5 10t-22 17.5t-14 24.5l-102 212l-43 -201q-3 -14 -1.5 -30t11.5 -31h-132q16 14 23 28t11 32l93 436q3 14 1.5 28t-12.5 28h134q-16 -14 -24.5 -29t-10.5 -28l-43 -202l182 163q16 15 24 25q11 15 16 35t-3 36h126l-266 -247l140 -291
q2 -2 4 -6.5t6 -10.5z" />
    <glyph glyph-name="L" unicode="L" horiz-adv-x="374" 
d="M347 0h-307q16 14 23 27.5t11 32.5l93 435q3 14 1 28t-12 28h134q-16 -14 -24 -28t-11 -28l-93 -435q25 -6 52.5 -10.5t55.5 -5t56.5 5.5t56.5 21z" />
    <glyph glyph-name="M" unicode="M" horiz-adv-x="642" 
d="M485 0q13 12 19.5 21.5t8.5 28.5l43 369l7 45l-14 -35l-213 -433q-24 13 -38 29.5t-20 42.5q-1 7 -1.5 13t-2.5 12l-42 324q-1 7 -0.5 14.5t-1.5 21.5l-10 -42l-110 -361q-5 -15 -2 -26.5t11 -23.5h-100q17 14 26.5 30.5t12.5 27.5l135 426q8 23 6 38t-11 30h113l57 -403
l202 403h119q-10 -12 -16 -21.5t-8 -25.5l-46 -414q-3 -29 -0.5 -52t15.5 -39h-139z" />
    <glyph glyph-name="N" unicode="N" horiz-adv-x="529" 
d="M595 552q-20 -20 -27.5 -42.5t-11.5 -39.5l-102 -483q-32 14 -52.5 30.5t-36.5 46.5q-5 8 -8 16t-8 16l-133 277l-19 50l-10 -53l-60 -285q-5 -19 -5 -41.5t12 -43.5h-98q23 23 31 44t13 41l76 361q8 35 5.5 57.5t-16.5 48.5h100l195 -404l68 322q4 17 6 39.5t-9 42.5h90
z" />
    <glyph glyph-name="O" unicode="O" horiz-adv-x="608" 
d="M646 279q-14 -64 -46.5 -117t-78.5 -91.5t-101 -59.5t-114 -21q-62 0 -110.5 19.5t-79 56.5t-41 90.5t4.5 121.5q13 62 45.5 114.5t78.5 91t101.5 60t114.5 21.5q62 0 110.5 -18t79.5 -54t41 -89.5t-5 -124.5zM551 252q8 38 7.5 84.5t-15 87t-46.5 68t-88 27.5
q-46 0 -85.5 -21t-70.5 -53t-51.5 -71.5t-27.5 -75.5q-10 -47 -7 -93.5t20.5 -84t49.5 -61t80 -23.5q39 0 76.5 16t69.5 44.5t55 68t33 87.5z" />
    <glyph glyph-name="P" unicode="P" horiz-adv-x="414" 
d="M480 400q-9 -39 -27 -71.5t-48 -56.5t-74 -38.5t-104 -17.5q60 26 100.5 70t51.5 99q13 60 -15 94.5t-104 34.5q-13 -61 -22 -104.5t-16 -75t-11.5 -53.5t-8.5 -39l-39 -182q-4 -19 -2 -32.5t12 -27.5h-133q16 14 23 27.5t11 32.5l93 435q6 34 -8 57h184q78 0 115.5 -38
t21.5 -114z" />
    <glyph glyph-name="Q" unicode="Q" horiz-adv-x="575" 
d="M613 -109q-38 -13 -71.5 -14.5t-66 10.5t-64 38.5t-64.5 70.5q-9 -2 -22 -3t-25 -2q-7 -1 -14.5 -1h-15.5q-55 -4 -96 18.5t-65.5 63t-31 95t6.5 113.5q13 63 44.5 115t75.5 88.5t98 57.5t112 23q51 1 93 -18t69.5 -56t37 -90t-4.5 -119q-14 -64 -52 -126.5t-111 -119.5
q13 -17 32.5 -37.5t42 -41t46.5 -38t46 -27.5zM516 240q5 27 7 58.5t-1 62.5t-11 60t-24 51t-39.5 35.5t-57.5 13.5q-45 0 -81 -20t-62.5 -50.5t-43.5 -67t-24 -69.5q-8 -38 -8.5 -86.5t13 -91.5t43.5 -72t83 -29q45 0 80.5 21t61.5 52t42 66.5t22 65.5z" />
    <glyph glyph-name="R" unicode="R" horiz-adv-x="443" 
d="M388 -2q-20 -3 -33 -1.5t-22 7.5t-15.5 17t-13.5 28l-95 226l-46 -214q-4 -19 -2 -33t12 -28h-133q16 14 23 28t11 33l93 434q3 14 1 28.5t-12 28.5h232q32 0 54 -10.5t34.5 -28t16 -39.5t-1.5 -45q-6 -27 -23.5 -50.5t-42 -42t-54.5 -32t-60 -20.5l93 -222q6 -15 13 -30
t15 -29zM395 412q9 43 -16.5 69t-71.5 26h-49l-43 -205q75 11 123 39.5t57 70.5z" />
    <glyph glyph-name="S" unicode="S" horiz-adv-x="406" 
d="M410 162q-17 -84 -75 -129t-146 -43q-36 1 -71.5 7.5t-68.5 20.5v67q64 -45 137 -45q17 0 38 5t40 15.5t33.5 26.5t19.5 38q6 28 -2.5 50t-25.5 34q-29 23 -61 41.5t-58 40.5q-26 23 -39.5 50t-4.5 69q6 29 21 56.5t39 49t57.5 34.5t75.5 13q62 0 118 -21l-12 -55
q-23 14 -45.5 21t-48.5 7q-12 0 -29.5 -4t-34.5 -13.5t-31 -25t-19 -37.5q-6 -29 8 -51.5t45 -38.5q28 -15 56 -33.5t49 -41t31.5 -49.5t3.5 -59z" />
    <glyph glyph-name="T" unicode="T" horiz-adv-x="401" 
d="M477 479q-11 12 -24.5 17t-28.5 6t-36.5 -1t-38.5 -7l-93 -434q-4 -18 -2 -32t12 -28h-133q16 14 23 28t11 32l93 436q-16 2 -35.5 3t-32.5 1q-39 -1 -84 -23l38 79l4 -2q6 -2 9 -2h351z" />
    <glyph glyph-name="U" unicode="U" horiz-adv-x="508" 
d="M587 552q-20 -20 -25.5 -35t-9.5 -34l-63 -297q-10 -48 -34.5 -84t-56.5 -60t-69.5 -36t-73.5 -12t-68.5 12t-54.5 36t-31 60t1 84l65 306q4 18 2 32t-11 28h133q-16 -14 -24 -28t-12 -32l-65 -306q-6 -26 -1 -48.5t18.5 -39.5t34.5 -26.5t47 -9.5q25 0 50 9t46 25.5
t36 39.5t21 50l63 297l4 18t2 17q-1 8 -3.5 16t-8.5 18h88z" />
    <glyph glyph-name="V" unicode="V" horiz-adv-x="501" 
d="M307 -10q-11 5 -17.5 8t-14.5 8q-16 9 -27 17.5t-18.5 20t-12 26.5t-7.5 37l-60 408q-2 11 -5 19t-12 18h120q-8 -23 -5 -33l59 -453l210 410q17 34 16 49t-12 27h85z" />
    <glyph glyph-name="W" unicode="W" horiz-adv-x="745" 
d="M567 -4q-45 17 -62 41.5t-20 50.5l-24 315l-185 -408q-29 9 -47 21.5t-28.5 27.5t-14.5 32t-5 34l-33 392q-1 10 -3.5 23.5t-13.5 21.5v5h112q0 -20 1.5 -58t4 -85t5.5 -98.5t6 -98.5t5 -85l3 -57l34 75l135 297q5 12 9.5 27t6 29.5t-1.5 28.5t-13 25h122
q-9 -13 -11 -26.5t0 -25.5l24 -408l28 53l159 315q29 56 7 92h87z" />
    <glyph glyph-name="X" unicode="X" horiz-adv-x="492" 
d="M358 0l-78 246l-122 -147q-14 -16 -25 -32.5t-15 -35.5q-3 -15 10 -31h-113l246 289l-73 229q-4 11 -9 17.5t-15 11.5v5h118l62 -207l91 108q13 15 24 32t15 36q3 12 -9 31h112l-216 -251l80 -248q4 -13 10.5 -26.5t23.5 -26.5h-117z" />
    <glyph glyph-name="Y" unicode="Y" horiz-adv-x="422" 
d="M319 253l-40 -193q-4 -18 -2 -32t12 -28h-133q16 14 23 28t11 33l41 192l-72 255q-5 14 -10.5 24.5t-16.5 19.5h121l57 -240l105 157q23 33 25 50.5t-5 32.5h88z" />
    <glyph glyph-name="Z" unicode="Z" horiz-adv-x="442" 
d="M398 0h-383l361 504q-40 4 -71.5 6t-59.5 0q-19 -2 -42 -8.5t-52 -17.5l41 68h318l-358 -499q26 -3 48.5 -5t43.5 -4q27 -2 51.5 -1.5t48.5 4.5t48.5 12.5t52.5 23.5z" />
    <glyph glyph-name="bracketleft" unicode="[" horiz-adv-x="270" 
d="M40 -109q20 22 27 47t12 50l111 522q5 25 8.5 50t-6.5 46h165l-8 -40h-67l-133 -625h67l-11 -50h-165z" />
    <glyph glyph-name="backslash" unicode="\" horiz-adv-x="308" 
d="M203 0v2q6 9 10.5 21t1.5 32l-74 481q-6 40 -27 54v2h113v-2q-7 -9 -11.5 -21t-0.5 -32l73 -481q7 -40 28 -54v-2h-113z" />
    <glyph glyph-name="bracketright" unicode="]" horiz-adv-x="270" 
d="M332 607q-20 -21 -27.5 -46t-12.5 -50l-111 -523q-5 -25 -9 -50t6 -47h-165l11 50h68l131 616h-68l11 50h166z" />
    <glyph glyph-name="asciicircum" unicode="^" horiz-adv-x="540" 
d="M508 430l-137 64l-163 -64l-45 32l226 117l179 -117z" />
    <glyph glyph-name="underscore" unicode="_" horiz-adv-x="500" 
d="M-24 -117l10 50h499l-10 -50h-499z" />
    <glyph glyph-name="grave" unicode="`" horiz-adv-x="292" 
d="M308 392q-1 1 -1.5 2t-1.5 2q-2 2 -5 4t-7 4q-12 5 -30.5 12t-38.5 15t-41 16.5t-39 16.5q-4 2 -9 2.5t-10 1.5q-3 1 -11 1l71 87q1 -2 2 -3.5t3 -3.5q4 -6 12 -11q19 -12 40 -25.5t41.5 -27t38.5 -25t30 -19.5q9 -6 17 -8q3 -1 8 -1z" />
    <glyph glyph-name="a" unicode="a" horiz-adv-x="386" 
d="M355 -2q-6 -3 -10 -3h-5q-111 -11 -84 117l27 124q-24 -11 -48 -22.5t-47 -25.5t-41 -32.5t-24 -42.5q-4 -15 -0.5 -32t15.5 -29.5t34 -16.5t55 6l-20 -33q-16 -8 -35.5 -10.5t-27.5 -2.5q-57 -2 -85 30.5t-17 83.5q7 34 24 56t40.5 37t51 24.5t55.5 18.5l22.5 9t24 11.5
t20.5 15.5t12 22q8 29 -10.5 40.5t-48.5 11.5q-28 1 -58.5 -6t-53.5 -18l20 48q52 16 98 18.5t79 -9.5t48.5 -38t6.5 -68q-10 -48 -19 -94t-20 -94q-10 -48 32 -71z" />
    <glyph glyph-name="b" unicode="b" horiz-adv-x="457" 
d="M364 189q7 34 1.5 67t-23.5 57.5t-49 37t-74 6.5l19 32q8 2 15.5 2.5t15.5 1.5q74 7 117 -20t58.5 -72t4.5 -98.5t-45 -100.5t-90.5 -78.5t-132.5 -31.5q-62 0 -138 17q6 10 9.5 20t5.5 22l96 449q3 15 4 27t-4 25h59q18 0 35 4l-110 -515q19 -8 31.5 -9.5t20.5 -1.5
q32 0 61 13.5t51.5 35.5t38.5 50.5t23 59.5z" />
    <glyph glyph-name="c" unicode="c" horiz-adv-x="347" 
d="M330 18q-62 -27 -123 -27q-38 0 -68.5 14t-50 39.5t-26.5 62.5t3 82q11 52 35 91t57 65.5t73.5 39.5t84.5 13q16 0 32.5 -2t35.5 -4l-10 -46q-25 13 -55 13q-33 0 -61 -12.5t-49 -33.5t-35 -47.5t-20 -53.5q-11 -52 0 -90t38 -59.5t67 -24.5t87 15z" />
    <glyph glyph-name="d" unicode="d" horiz-adv-x="432" 
d="M303 0l50 236q10 52 -10 78.5t-52 28.5q-41 2 -79.5 -35.5t-56.5 -117.5q-6 -30 -1 -60.5t22.5 -54.5t46.5 -36t71 -4l-18 -31q-11 -5 -26.5 -7t-23.5 -2q-53 -1 -86.5 15.5t-51.5 44.5t-22 63.5t4 73.5q9 41 29 78.5t48 65t61.5 43.5t69.5 15q26 -1 51 -11t47 -38
l32 150q4 18 3.5 30.5t-5.5 26.5h54q20 0 42 7l-104 -490q-5 -22 -3.5 -37t6.5 -32h-98z" />
    <glyph glyph-name="e" unicode="e" horiz-adv-x="390" 
d="M151 217q-20 -94 11.5 -142t101.5 -48q23 0 48.5 7.5t53.5 18.5l-21 -44q-28 -11 -56 -16.5t-56 -6.5q-57 -1 -94 13.5t-57 41.5t-24 66.5t6 87.5q9 45 30.5 82.5t51 64.5t65 42t72.5 15q78 0 108 -47t20 -135h-260zM334 247q23 116 -58 116q-38 0 -69 -26.5t-51 -89.5
h178z" />
    <glyph glyph-name="f" unicode="f" horiz-adv-x="260" 
d="M339 520q-20 9 -39.5 4.5t-35 -16.5t-26.5 -29.5t-15 -34.5l-12 -56h100l-9 -41q-6 1 -9.5 1h-5.5h-85l-62 -292q-2 -10 -2 -24.5t5 -31.5h-107q12 18 16.5 33t6.5 23l62 292h-37l46 41l10 45q14 66 62 98.5t114 32.5q26 0 53 -6z" />
    <glyph glyph-name="g" unicode="g" horiz-adv-x="388" 
d="M369 -56q-7 -33 -26.5 -56.5t-49 -38.5t-67.5 -22t-82 -7q-27 0 -56.5 2t-52.5 11t-36 26t-8 47q3 23 16.5 38.5t24.5 22.5q8 -5 23.5 -5.5t25.5 -0.5q-8 -8 -14 -19t-7 -17q-5 -22 3 -36.5t22.5 -23t32 -12t32.5 -3.5q14 0 35 4t41.5 14.5t37.5 28.5t23 46t-3.5 44.5
t-26 25.5t-36 11.5t-32.5 2.5q-17 0 -34 -2.5t-34 -2.5q-15 0 -21.5 7.5t-7 17t4 19.5t11.5 15l62 44q-62 28 -82 59t-11 74q7 33 25 58.5t43 43.5t54.5 27t60.5 9q14 0 28 -3t31 -8l135 5l-18 -38h-76q17 -14 25.5 -29t11 -29.5t1.5 -26t-2 -18.5q-5 -24 -21 -46t-39 -38.5
t-50 -26.5t-54 -10q-7 0 -19 -4t-23.5 -10.5t-20.5 -14.5t-10 -15q-5 -22 9.5 -28.5t35.5 -6.5q22 0 40.5 3t20.5 3q31 2 52.5 -7t34 -25t17 -36.5t0.5 -42.5zM313 251q3 16 2.5 35.5t-6.5 36t-18.5 27.5t-32.5 11q-21 0 -38 -10t-29 -24t-19.5 -30.5t-10.5 -29.5
q-3 -16 -2 -34.5t7.5 -34t19 -26t32.5 -10.5t36.5 8.5t28.5 22t19.5 29t10.5 29.5z" />
    <glyph glyph-name="h" unicode="h" horiz-adv-x="421" 
d="M283 0q5 9 8 15t5 11.5t3.5 11.5t3.5 16l48 224q5 26 -4.5 40t-27 17.5t-39.5 -3t-43.5 -21t-38 -37t-22.5 -50.5l-36 -170q-4 -17 -4 -26t3 -28h-100q5 9 8 15t5 11.5t3.5 12t3.5 15.5l94 442q4 15 4 30q0 7 -1.5 14t-6.5 12h67q5 0 12.5 1t18.5 4l-50 -233
q58 52 104.5 65.5t78 2.5t46.5 -38.5t9 -57.5l-51 -242q-4 -17 -4.5 -26t3.5 -28h-100z" />
    <glyph glyph-name="i" unicode="i" horiz-adv-x="207" 
d="M258 505q-5 -24 -24.5 -40t-43.5 -16q-20 0 -32 16t-7 36q5 24 24 40.5t42 16.5q21 0 33.5 -15.5t7.5 -37.5zM52 0q11 15 15 27t7 26l62 295q4 15 -1 27q-2 4 -4.5 7t-4.5 6h69q10 0 18 2t15 4l-72 -341q-3 -14 -4 -26t4 -27h-104z" />
    <glyph glyph-name="j" unicode="j" horiz-adv-x="207" 
d="M258 505q-5 -23 -24.5 -39t-43.5 -16q-20 0 -32 15.5t-7 35.5q5 24 24 40.5t42 16.5q21 0 33.5 -15.5t7.5 -37.5zM133 -54q-12 -57 -49.5 -86t-107.5 -42q26 27 46 56t25 55l89 418q4 16 -1 28q-2 4 -4.5 7t-4.5 6h69q10 0 18 2t15 4z" />
    <glyph glyph-name="k" unicode="k" horiz-adv-x="387" 
d="M375 -1q-23 -1 -37 -2t-34 -1q-26 0 -36 19q-2 2 -3 5t-3 5l-93 162l-27 -129q-2 -11 -4 -26.5t4 -31.5h-105q12 17 17 32t7 26l91 428q4 20 6 34.5t-6 31.5h66q8 0 15 1.5t15 3.5l-73 -343l131 105q16 13 20.5 32t-1.5 36h109l-186 -162l123 -214q0 -2 1 -3.5t2 -3.5z
" />
    <glyph glyph-name="l" unicode="l" horiz-adv-x="204" 
d="M48 0q11 15 16.5 29t8.5 28l95 447q2 8 2 21.5t-5 26.5h53q9 0 21 3t23 7l-107 -505q-8 -30 0 -57h-107z" />
    <glyph glyph-name="m" unicode="m" horiz-adv-x="641" 
d="M569 276q8 37 -7 55.5t-44 15.5q-14 -2 -29.5 -8t-29 -17t-23.5 -26.5t-14 -35.5l-46 -213q-5 -21 2 -47h-104q11 14 14.5 25.5t5.5 20.5l50 235q8 35 -8.5 51.5t-45.5 13.5q-14 -2 -30.5 -10t-31 -21.5t-26 -31t-15.5 -37.5l-43 -199q-5 -20 1 -47h-103q10 14 14 25.5
t6 20.5l62 290q2 11 3 23t-3 29h67q5 0 12 1.5t16 6.5l-14 -66q40 38 77.5 53.5t67.5 14t50.5 -18t28.5 -41.5q48 41 92 52.5t76 1.5t48.5 -37t9.5 -61l-53 -247q-5 -20 2 -47h-103q10 14 13.5 25.5t5.5 20.5z" />
    <glyph glyph-name="n" unicode="n" horiz-adv-x="430" 
d="M286 0q12 16 17.5 29.5t8.5 29.5l47 221q9 40 -13.5 55t-55 9t-64 -31t-40.5 -65l-40 -191q-4 -17 -5 -30t3 -27h-104q11 16 16.5 29.5t8.5 29.5l55 258q4 18 6.5 35t-0.5 36h62q14 0 29 7l-14 -66q49 46 96 60.5t82 5.5t53 -36.5t10 -65.5l-50 -236q-4 -17 -5.5 -30
t3.5 -27h-106z" />
    <glyph glyph-name="o" unicode="o" horiz-adv-x="417" 
d="M434 200q-10 -49 -31.5 -87t-51.5 -64t-66 -40t-75 -15q-40 -1 -71.5 12t-51 38t-26 62t4.5 84q10 48 32 86.5t52 65t66.5 40.5t77.5 14q37 0 67 -13t49 -38.5t26 -62t-2 -82.5zM358 198q4 21 5 47.5t-6.5 50t-25.5 39.5t-51 16q-32 0 -55.5 -14t-40 -36.5t-26.5 -52
t-16 -59.5q-5 -29 -5 -56t8 -49t26 -35t50 -13q31 0 53.5 13.5t39 36t27 51.5t17.5 61z" />
    <glyph glyph-name="p" unicode="p" horiz-adv-x="439" 
d="M456 198q-8 -38 -29.5 -76.5t-57 -68t-84.5 -44.5t-112 -6l-17 3l-3 34q45 -7 82 4.5t64.5 35t45.5 55t25 63.5q30 146 -64 146q-17 0 -37 -11t-39.5 -29.5t-34.5 -43t-21 -50.5l-71 -336q-2 -11 -3.5 -22.5t0.5 -26.5h-99q8 14 12.5 25t7.5 24l99 465q5 24 -1 49h73
q6 0 21 5l-14 -68q34 38 69 54t67 16q36 0 62.5 -14.5t42.5 -40.5t20.5 -62.5t-4.5 -79.5z" />
    <glyph glyph-name="q" unicode="q" horiz-adv-x="454" 
d="M296 -174q-18 0 -35 -4l112 528q-20 5 -33 5.5t-21 0.5q-32 0 -60 -13.5t-50.5 -36t-38 -51t-21.5 -58.5q-7 -32 -1.5 -64t23 -56t47 -37.5t71.5 -8.5l-16 -31q-8 -1 -16 -1.5t-15 -1.5q-74 -7 -117 19.5t-58.5 71t-5 97.5t44.5 99.5t90 78t132 31.5q33 0 68.5 -4
t71.5 -12q-6 -11 -10 -20.5t-6 -21.5l-97 -458q-4 -15 -4 -27.5t5 -24.5h-60z" />
    <glyph glyph-name="r" unicode="r" horiz-adv-x="274" 
d="M331 337q-15 3 -25 3q-22 0 -42 -9.5t-36.5 -26t-28.5 -39t-18 -48.5l-36 -169q-2 -10 -3.5 -21.5t3.5 -26.5h-102q10 14 13.5 25t6.5 23l60 284q4 17 5 28.5t-4 27.5h64q8 0 15.5 2.5t14.5 4.5l-17 -83q22 28 41 45.5t36.5 27t33.5 12.5t32 2z" />
    <glyph glyph-name="s" unicode="s" horiz-adv-x="345" 
d="M341 117q-10 -54 -42 -83.5t-75.5 -40.5t-93.5 -7t-96 18l3 51q23 -11 44.5 -19.5t43.5 -11.5q21 -3 42.5 -1.5t40 8.5t32 19.5t17.5 32.5q5 22 -6.5 38.5t-29.5 28.5t-38.5 21.5t-33.5 18.5q-33 21 -52 42t-11 53q9 41 35 66t63.5 36.5t83 10t93.5 -13.5l-9 -45
q-18 9 -34.5 15t-33.5 8q-17 1 -35.5 -1.5t-35 -8.5t-28.5 -16t-15 -25t6 -26.5t22.5 -20.5t29 -15.5t25.5 -12.5q18 -10 36 -21.5t30.5 -25.5t19 -31.5t2.5 -40.5z" />
    <glyph glyph-name="t" unicode="t" horiz-adv-x="259" 
d="M318 341q-10 7 -28 7h-71l-49 -231q-10 -48 7.5 -67t68.5 -19l-19 -35q-16 -2 -31 -4t-29 -2q-60 0 -77.5 26.5t-7.5 72.5l56 260h-54l4 19q58 13 94 54t58 95h15l-27 -129h100z" />
    <glyph glyph-name="u" unicode="u" horiz-adv-x="414" 
d="M285 0l14 70q-53 -50 -98.5 -67.5t-78.5 -11.5t-49 30.5t-9 57.5l54 253q1 4 1.5 7.5t1.5 8.5q4 16 -7 40h72q9 0 26 6l-61 -290q-5 -22 4 -34.5t25.5 -16.5t37.5 1t41 18.5t36.5 35.5t23.5 53q2 9 6.5 31t10 49.5t11.5 56t11 50.5q2 10 2 19t-4 21h66q12 0 29 7
l-75 -353q-5 -21 5 -42h-96z" />
    <glyph glyph-name="v" unicode="v" horiz-adv-x="363" 
d="M213 -15q-7 3 -12 6.5t-10 6.5q-18 14 -30.5 28.5t-16.5 37.5q0 5 -0.5 10.5t-0.5 10.5l-33 269q-3 17 -15 34h61q9 0 17 1.5t19 5.5l35 -328l146 267q5 8 9.5 23.5t-2.5 30.5h55z" />
    <glyph glyph-name="w" unicode="w" horiz-adv-x="590" 
d="M446 -7q-19 8 -30 15t-16 14t-7 15t-3 18l-22 228l-163 -289q-12 5 -15 8q-5 4 -9 7t-9 6q-4 3 -7.5 5.5t-6.5 6.5q-10 11 -14 39l-33 279q-2 13 -5.5 22.5t-13.5 20.5h65q10 0 18 0.5t19 4.5l30 -313l139 251q4 21 -7 57h89l24 -296l122 227q11 20 14 36.5t-5 32.5h63z
" />
    <glyph glyph-name="x" unicode="x" horiz-adv-x="354" 
d="M227 0q5 13 2.5 20t-5.5 17l-38 127l-88 -107q-14 -17 -18 -30t2 -27h-72l167 194l-57 171q-1 3 -4.5 8.5t-12.5 14.5h104q-4 -9 -3.5 -16t1.5 -13q1 -2 11.5 -32.5t27.5 -73.5l72 85q11 12 16.5 23.5t1.5 26.5h61l-140 -162l66 -204q2 -4 5.5 -9t12.5 -13h-112z" />
    <glyph glyph-name="y" unicode="y" horiz-adv-x="367" 
d="M192 -63q-32 -60 -84 -81.5t-112 -16.5l39 38q28 -6 52.5 4t44.5 29.5t36.5 46t29.5 53.5q-14 12 -21.5 22.5t-11.5 21.5q-2 6 -4 11.5t-3 12.5q-2 7 -3 14.5t-3 15.5l-41 246q-2 8 -5.5 16t-12.5 18h112q-8 -9 -8.5 -14.5t1.5 -13.5l41 -277l126 236q5 10 10 19t8 19
q4 8 4 15.5t-7 15.5h58z" />
    <glyph glyph-name="z" unicode="z" horiz-adv-x="340" 
d="M314 0h-306l250 341q-42 11 -84.5 11.5t-77.5 -9.5l23 45h265l-248 -339q51 -14 105.5 -14.5t96.5 11.5z" />
    <glyph glyph-name="braceleft" unicode="{" horiz-adv-x="270" 
d="M218 -109q-64 -6 -100 16t-25 76l37 174q8 37 -0.5 59.5t-46.5 34.5q22 5 36.5 12.5t24 19t15.5 27t11 35.5l31 146q6 30 17 53t30.5 38t49 21.5t73.5 3.5q-40 -11 -59.5 -34t-27.5 -61l-33 -156q-4 -19 -9.5 -36t-15.5 -30.5t-26 -23.5t-41 -15q21 -5 32.5 -14.5
t16.5 -22.5t4.5 -28.5t-4.5 -32.5l-35 -166q-8 -39 1 -61t44 -35z" />
    <glyph glyph-name="bar" unicode="|" horiz-adv-x="237" 
d="M65 0v2q19 18 23.5 36t9.5 41l98 458q4 19 5 34t-9 30l1 2h106l-1 -2q-15 -17 -20 -30.5t-9 -33.5l-98 -458q-5 -23 -7.5 -41.5t7.5 -35.5v-2h-106z" />
    <glyph glyph-name="braceright" unicode="}" horiz-adv-x="270" 
d="M295 251q-44 -12 -61.5 -34.5t-25.5 -59.5l-37 -174q-11 -53 -57 -75.5t-108 -16.5q41 13 60 35t27 61l35 166q7 34 25.5 60.5t65.5 37.5q-23 5 -34.5 15t-16 23.5t-3 30.5t5.5 36l33 156q8 38 -1.5 61t-43.5 34q45 3 71.5 -3.5t39 -21.5t14 -38t-4.5 -53l-31 -146
q-9 -41 -0.5 -62t47.5 -32z" />
    <glyph glyph-name="asciitilde" unicode="~" horiz-adv-x="372" 
d="M372 174q-32 -16 -58 -18t-49.5 2.5t-46 12t-48.5 10.5t-57.5 -1.5t-71.5 -24.5l44 91q40 16 69 17.5t52.5 -3.5t44.5 -13t44.5 -11.5t53 1.5t70.5 26z" />
    <glyph glyph-name="uni00A0" unicode="&#xa0;" horiz-adv-x="250" 
 />
    <glyph glyph-name="cent" unicode="&#xa2;" horiz-adv-x="444" 
d="M385 119q-45 -19 -89 -23q-3 -15 -3 -29t7 -28l-1 -2h-74l1 2q13 12 19.5 27.5t9.5 30.5q-57 8 -86 53t-14 117q17 76 64 121.5t110 56.5q4 16 4 31.5t-8 27.5v2h74v-2q-12 -13 -18.5 -26.5t-9.5 -28.5h1q19 0 38.5 -3t33.5 -7l-8 -36q-10 6 -28.5 10.5t-32.5 4.5
q-3 0 -6 -0.5t-5 -0.5l-59 -280q15 -5 32 -3q14 0 29.5 3.5t29.5 8.5zM321 406q-37 -17 -60.5 -51t-31.5 -69q-10 -48 1 -82t37 -51z" />
    <glyph glyph-name="sterling" unicode="&#xa3;" horiz-adv-x="424" 
d="M381 0h-346l-3 72q10 -8 23.5 -15.5t30.5 -7.5l48 225q-29 -2 -51 -3l11 49q15 -1 49 -3l19 88q7 31 23 61t41.5 53t61 37t82.5 14q32 0 64.5 -5.5t61.5 -16.5l-12 -56q-22 14 -47 22t-54 8q-14 0 -33 -5t-38 -15.5t-34 -27.5t-20 -41l-25 -117q42 0 77.5 1t49.5 3
l-11 -49q-29 2 -61 3.5t-64 1.5l-49 -232h45q19 0 39.5 0.5t36.5 0.5q32 -1 63.5 5.5t56.5 21.5z" />
    <glyph glyph-name="yen" unicode="&#xa5;" horiz-adv-x="439" 
d="M383 348h50q18 0 28 1.5t25 6.5h2l-15 -71h-2q-13 6 -22.5 7.5t-26.5 1.5h-75l-28 -41l-10 -46h94q18 0 28 1.5t25 6.5h2l-15 -71h-2q-13 6 -22.5 7.5t-26.5 1.5h-94l-19 -93q-4 -18 -2 -32t12 -28h-133q16 14 23 28t11 33l20 92h-92q-16 0 -29 -1.5t-32 -7.5h-2l15 71h2
q18 -6 30 -7t27 -1h92l10 46l-12 41h-71q-16 0 -29 -1.5t-32 -7.5h-2l15 71h2q18 -6 30 -7t27 -1h45l-45 160q-5 14 -10.5 24.5t-16.5 19.5h121l57 -240l105 157q23 33 25 50.5t-5 32.5h88z" />
    <glyph glyph-name="copyright" unicode="&#xa9;" horiz-adv-x="605" 
d="M429 141q-47 -22 -97 -22q-30 0 -54 11t-40 31.5t-21.5 49t2.5 64.5q9 40 28 71t45 52t57.5 32t66.5 11q14 0 27.5 -1.5t27.5 -3.5l-8 -38q-20 11 -45 11q-26 0 -47.5 -10.5t-38 -27t-27.5 -37t-15 -41.5q-7 -34 -2 -59.5t18 -43t33.5 -25.5t45.5 -7q26 0 56 12zM648 278
q-13 -60 -47 -112.5t-81 -92t-104 -62t-116 -22.5t-106 23t-77 63t-40.5 93t2.5 112q13 60 46.5 112t80.5 91t104 61t117 22q58 0 104.5 -23t76.5 -62t41 -91.5t-1 -111.5zM603 280q10 49 0 93t-35.5 76.5t-65 51.5t-89.5 19q-48 0 -95 -19t-86.5 -51.5t-68 -76t-38.5 -92.5
q-11 -50 -2 -94.5t33.5 -78t63.5 -53t89 -19.5q51 0 99 19t87.5 52t68 77.5t39.5 95.5z" />
    <glyph glyph-name="guillemotleft" unicode="&#xab;" horiz-adv-x="468" 
d="M368 223l50 -126h-72l-74 126l128 128h72zM203 223l50 -126h-72l-74 126l128 128h72z" />
    <glyph glyph-name="registered" unicode="&#xae;" horiz-adv-x="605" 
d="M648 278q-13 -60 -47 -112.5t-81 -92t-104 -62t-116 -22.5t-106 23t-77 63t-40.5 93t2.5 112q13 60 46.5 112t80.5 91t104 61t117 22q58 0 104.5 -23t76.5 -62t41 -91.5t-1 -111.5zM603 280q10 49 0 93t-35.5 76.5t-65 51.5t-89.5 19q-48 0 -95 -19t-86.5 -51.5t-68 -76
t-38.5 -92.5q-11 -50 -2 -94.5t33.5 -78t63.5 -53t89 -19.5q51 0 99 19t87.5 52t68 77.5t39.5 95.5zM442 107q-28 -4 -38.5 5.5t-22.5 30.5l-58 117l-23 -108q-6 -24 8 -44h-103q14 11 19.5 21t8.5 23l57 267q2 11 0 21t-11 21h163q23 0 38.5 -7.5t24.5 -20t11.5 -28.5
t-0.5 -32q-4 -19 -15.5 -35.5t-28 -29.5t-36 -22t-40.5 -14q18 -34 36 -68.5t34 -69.5q2 -8 11 -22zM444 362q7 29 -10 46t-49 17h-27l-29 -136q51 8 80.5 27t34.5 46z" />
    <glyph glyph-name="guillemotright" unicode="&#xbb;" horiz-adv-x="468" 
d="M319 97h-72l104 126l-50 128h72l74 -128zM154 97h-72l104 126l-50 128h72l74 -128z" />
    <glyph glyph-name="onequarter" unicode="&#xbc;" horiz-adv-x="572" 
d="M533 59h-40l-9 -41q-1 -4 0.5 -10t3.5 -10h-65q6 5 8.5 10.5t3.5 9.5l9 41h-117l169 208h41l-38 -180q17 0 29.5 2t26.5 8zM561 488q-11 -5 -25.5 -17t-25.5 -27l-316 -399q-21 -30 -18 -47l-82 2l-1 4q11 5 27 17t28 27l314 399q23 30 19 47h83l-1 -4zM113 231
q7 5 15 15.5t10 19.5l33 154l-42 10l2 10q26 12 44 24.5t35 24.5l28 19l-51 -242q-2 -9 2.5 -20.5t9.5 -16.5zM475 206l-93 -119h68z" />
    <glyph glyph-name="onehalf" unicode="&#xbd;" horiz-adv-x="572" 
d="M528 -2h-172q9 11 21.5 26.5t25 31.5t23 29.5t16.5 21.5l13 18l18 22.5t18.5 24.5t14.5 22t7 16q4 18 -7 26.5t-30 8.5q-23 0 -56 -15l16 33q34 12 64 12q35 0 54 -17t13 -46q-5 -15 -22.5 -41t-36.5 -51l-40 -50q-9 -11 -16.5 -21t-14.5 -20q9 -2 19 -2h20
q18 0 36.5 2.5t35.5 7.5zM545 489q-11 -5 -25.5 -17.5t-25.5 -26.5q-78 -99 -157.5 -200t-157.5 -200q-23 -29 -18 -47l-83 2l-1 4q12 5 28 17t27 27l315 399q23 30 18 47h83l-1 -3zM113 231q7 5 15 15.5t10 19.5l33 154l-42 10l2 10q28 12 46 24t34 25l28 20l-52 -243
q-2 -10 2 -21t8 -16z" />
    <glyph glyph-name="threequarters" unicode="&#xbe;" horiz-adv-x="572" 
d="M543 59h-40l-9 -41q-1 -4 0 -10t4 -10h-65q4 5 7.5 11t4.5 9l9 41h-117l168 208h42l-38 -180q16 0 29 2t27 8zM582 488q-11 -5 -26 -17t-26 -27l-315 -399q-21 -30 -18 -47l-82 2l-1 4q11 5 27.5 17t27.5 27l315 399q21 30 18 47h83l-1 -4zM278 304q-10 -45 -50 -66.5
t-89 -21.5q-15 0 -28 2t-25 5l2 32q11 -6 24 -9t25 -3q15 0 30 4t27.5 11.5t22 18.5t12.5 25q5 26 -15 43t-55 17h-16l8 20q8 0 22 2t28 7t25.5 15t14.5 27q4 22 -11.5 31t-37.5 9q-23 0 -53 -11l13 29q33 9 62 9q40 0 60.5 -17t15.5 -43q-4 -18 -19.5 -35t-51.5 -26
q42 -6 53.5 -27.5t5.5 -47.5zM485 207l-93 -120h68z" />
    <glyph glyph-name="multiply" unicode="&#xd7;" horiz-adv-x="540" 
d="M552 369q-18 -6 -33.5 -17t-32.5 -25l-129 -106l86 -109q5 -7 11 -14.5t12 -13.5q9 -8 22 -12l-66 -54q-1 11 -5 19t-9 17q-3 3 -6 7t-8 9l-86 110l-129 -106q-15 -13 -29.5 -26t-24.5 -31l-43 54q18 8 33 19.5t31 24.5l128 106l-86 110q-9 11 -19.5 22t-24.5 16l65 54
q3 -16 11.5 -28t17.5 -24l87 -110l130 107q17 14 29.5 27t23.5 30z" />
    <glyph glyph-name="divide" unicode="&#xf7;" horiz-adv-x="540" 
d="M407 354q-5 -26 -27.5 -44.5t-48.5 -18.5t-40 18.5t-9 44.5t27.5 44t48.5 18t40 -18t9 -44zM513 160q-16 11 -34 14t-41 3h-261q-23 0 -42 -2t-40 -15h-2l21 100h2q14 -12 33.5 -14t41.5 -2h261q23 0 41.5 3t40.5 13h2l-21 -100h-2zM346 67q-5 -25 -27 -43.5t-48 -18.5
t-40.5 18.5t-9.5 43.5q5 26 27.5 44.5t48.5 18.5t40 -18.5t9 -44.5z" />
    <glyph glyph-name="kokaithai" unicode="&#xe01;" horiz-adv-x="418" 
d="M396 35q-2 -8 -2.5 -17t7.5 -16v-2h-101v2q11 7 14.5 16t5.5 17l58 272q4 21 -2 35.5t-17.5 23.5t-26 12.5t-26.5 3.5q-30 0 -61 -11t-65 -34q13 -11 16.5 -18t1.5 -15l-57 -269q-2 -8 -2.5 -17t7.5 -16v-2h-101v2q11 7 14 16t5 17l46 212q6 32 6.5 58.5t-19.5 47.5
q22 12 43.5 24.5t47 23t56.5 17t71 6.5q55 0 85 -13.5t42 -35t11 -49t-7 -55.5z" />
    <glyph glyph-name="khokhaithai" unicode="&#xe02;" horiz-adv-x="356" 
d="M421 412q-10 -7 -13.5 -15.5t-5.5 -16.5l-45 -222q-7 -34 -19.5 -64t-34 -53t-52.5 -36.5t-74 -13.5q-41 0 -67 11t-40 30.5t-17 45.5t4 57q6 27 22 51.5t34.5 47t35.5 43.5t24 41q10 27 1 51.5t-31 35.5l2 9h57q9 0 16.5 2.5l13.5 4.5h5q19 -17 21.5 -46t-6.5 -57
q-9 -27 -27 -53t-37 -49.5t-35 -44.5t-20 -39q-11 -51 5 -74t47 -23q27 0 52 21t34 63q1 4 3.5 18t6.5 33.5t9 42.5l10 46q5 28 11.5 58t14.5 63q2 8 2 17t-7 15v2h100v-2z" />
    <glyph glyph-name="khokhuatthai" unicode="&#xe03;" horiz-adv-x="372" 
d="M437 412q-10 -7 -13 -15.5t-5 -16.5l-46 -222q-7 -34 -19.5 -64t-33.5 -53t-52 -36.5t-75 -13.5q-41 0 -67 11t-40 30.5t-16.5 45.5t3.5 57q6 27 22.5 51.5t35 47t35.5 43.5t24 41l1 6q-28 2 -40.5 22t-19.5 45q-2 6 -3 12t-3 11h34q1 0 4 0.5t8 1.5q1 -2 1 -4.5t1 -6.5
q5 -19 11 -28t23 -9t27 16t14 33h32q2 -7 2 -19t-1.5 -26t-4.5 -28t-7 -26q-9 -27 -27 -53t-37 -49.5t-35 -44.5t-20 -39q-11 -51 5 -74t47 -23q27 0 52 21t33 63q1 4 4 18t7 33.5t9 42.5l10 46q5 28 11.5 58t14.5 63q2 8 2 17t-7 15v2h100z" />
    <glyph glyph-name="khokhwaithai" unicode="&#xe04;" horiz-adv-x="462" 
d="M438 22q-3 -12 4 -22h-94q11 8 13 21l51 237q12 58 -15.5 92t-85.5 34q-31 0 -58.5 -12t-49.5 -32.5t-38 -48.5t-23 -60q-9 -42 -10 -75.5t10 -59.5q12 23 30 53t41 55t49.5 40t55.5 8l4 -48q-19 6 -38 -5.5t-38 -32.5t-36 -48t-31.5 -52.5t-24.5 -46t-15 -27.5
q-51 18 -70 77t-2 144q12 57 38.5 97.5t61 66.5t74.5 38t79 12q103 0 143.5 -46.5t23.5 -127.5z" />
    <glyph glyph-name="khokhonthai" unicode="&#xe05;" horiz-adv-x="464" 
d="M440 22q-3 -12 4 -22h-94q11 8 13 21l50 233q6 30 0 51.5t-18 34.5t-27.5 19t-28.5 6l-36 -28l-25 28q-17 0 -37 -7.5t-39.5 -23t-35 -41t-23.5 -61.5q-8 -37 -9.5 -69t7.5 -67q12 23 30 53t41.5 55t50 40t55.5 8l4 -48q-19 6 -38 -5.5t-38 -32.5t-36 -48t-31.5 -52.5
t-24.5 -46t-15 -27.5q-24 7 -41.5 28t-27 51t-10.5 66.5t7 75.5q12 55 36 94.5t52.5 65t57.5 38t52 14.5l46 -47l67 47q29 -2 52.5 -16t39.5 -36t22 -50t0 -57z" />
    <glyph glyph-name="khorakhangthai" unicode="&#xe06;" horiz-adv-x="434" 
d="M502 414q-10 -10 -14 -23l-67 -314q-3 -17 -12 -32.5t-21.5 -27.5t-28 -19t-31.5 -7q-14 0 -32.5 2t-39 13.5t-41.5 37.5t-40 74l-27 -127q-8 4 -14.5 6.5t-17.5 2.5h-53q13 7 16 28l28 128q6 31 12.5 53t16.5 41.5t24 39t35 45.5q-19 -6 -31 -3.5t-20.5 11t-13.5 21.5
t-9 27q-2 6 -3 12t-2 11h34q1 0 4 0.5t8 1.5q0 -1 0.5 -3.5l1.5 -7.5q5 -19 11.5 -28t21.5 -9q9 0 16 5t12.5 12.5t8.5 16t5 15.5h31q2 -10 1.5 -23t-7.5 -31q-10 -26 -21 -45.5t-21 -38.5t-18.5 -41t-12.5 -52q-3 -19 1.5 -37.5t13.5 -34.5t21 -28.5t25 -19.5q14 -7 30 -8
t30.5 5t26 20t16.5 37l57 272q4 12 -4 22h94z" />
    <glyph glyph-name="ngonguthai" unicode="&#xe07;" horiz-adv-x="402" 
d="M426 226q-17 -81 -58 -139t-95 -81q-17 -7 -40 -10.5t-47 -4t-46.5 0.5t-38.5 3l-9 216q-1 18 -2.5 37.5t-12.5 30.5h28q13 0 25.5 0.5t26.5 5.5l9 -201q0 -5 -0.5 -14.5t-5.5 -21.5q48 -7 81.5 7t55.5 38.5t34 54t17 53.5q8 37 9 70.5t-8.5 59t-31.5 41t-61 16.5l23 35
q9 2 22.5 2.5t19.5 0.5q33 1 57 -15t37.5 -43.5t16.5 -64.5t-6 -77z" />
    <glyph glyph-name="chochanthai" unicode="&#xe08;" horiz-adv-x="399" 
d="M413 217q-32 -133 -106.5 -187t-189.5 -36l-4 214q0 21 -7.5 39t-24.5 23l1 9h46h25.5t26.5 5l5 -189q0 -8 -0.5 -23t-6.5 -26q66 0 102.5 42.5t56.5 114.5q13 50 9.5 84.5t-19 56.5t-41 32t-56.5 12t-62.5 -9t-62.5 -23l24 48q36 13 68 19t74 5q37 0 68.5 -12
t52.5 -37.5t27.5 -65.5t-6.5 -96z" />
    <glyph glyph-name="chochingthai" unicode="&#xe09;" horiz-adv-x="413" 
d="M379 22q-2 -13 5 -22h-46q-7 0 -18.5 -2t-22.5 -6q5 15 11.5 37.5t11.5 44.5q3 13 6 25.5t6 26.5q-39 -48 -70.5 -76t-57 -42t-45.5 -17t-36 -1q-32 4 -47.5 28.5t-7.5 61.5l24 110q5 25 3.5 39t-19.5 23l2 10l59 -1q14 0 23.5 2.5t23.5 7.5l-31 -145q-8 -35 1.5 -51
t28.5 -17t43 9.5t47 28.5t40.5 40.5t21.5 44.5l21 97q8 37 -8.5 62.5t-52.5 35.5t-89 4t-119 -31l16 38q84 31 150.5 37.5t110.5 -8t63 -47.5t9 -80z" />
    <glyph glyph-name="chochangthai" unicode="&#xe0a;" horiz-adv-x="388" 
d="M457 470q-8 -27 -28.5 -58t-65.5 -69q7 -16 14 -34.5t10.5 -41t3.5 -49t-7 -59.5q-8 -34 -22.5 -65t-37.5 -54.5t-56 -37.5t-78 -14q-42 0 -69 15t-41 40.5t-16 59.5t6 72t27 70.5t34 64.5q6 14 11 28t7 26.5t-0.5 23t-12.5 18.5l2 8h43q12 0 20.5 2.5t19.5 7.5h5
q2 -3 6 -13q2 -7 3 -18t-2 -25q-4 -20 -16 -43.5t-25.5 -48.5t-25.5 -49.5t-16 -46.5q-5 -22 -6.5 -46.5t3.5 -44.5t18 -33.5t37 -13.5q26 0 45 12.5t32 32.5t21 45.5t12 50.5t5.5 48t1.5 38q0 18 -2 35t-3 35q58 61 70 131h73z" />
    <glyph glyph-name="sosothai" unicode="&#xe0b;" horiz-adv-x="392" 
d="M462 472q-8 -27 -28.5 -57.5t-66.5 -68.5q7 -17 14 -35.5t11 -41t3.5 -49.5t-7.5 -60q-7 -34 -21.5 -65t-37.5 -54t-56 -37t-78 -14q-78 0 -106 45.5t-11 126.5q9 41 36.5 88t62.5 85q-19 -6 -31 -3.5t-20.5 11t-13.5 21.5t-9 27q-2 6 -3 12t-2 11h34q1 0 4 0.5t8 1.5
q0 -1 0.5 -3.5l1.5 -7.5q5 -19 10.5 -28t22.5 -9t27.5 16t14.5 33h31q2 -10 2 -22t-8 -30q-10 -26 -22.5 -50t-25.5 -47.5t-24 -47.5t-18 -50q-6 -21 -9 -44.5t0.5 -43t17 -32.5t40.5 -13q39 0 62.5 28.5t35.5 67t16 77.5t4 61q0 18 -2 35t-2 35q54 59 72 131h71z" />
    <glyph glyph-name="chochoethai" unicode="&#xe0c;" horiz-adv-x="672" 
d="M738 414q-12 -9 -14 -22l-67 -315q-8 -38 -39 -63t-69 -25q-10 0 -26.5 3t-35.5 13.5t-39.5 31.5t-38.5 57l-23 -104q-8 5 -14.5 7.5t-17.5 2.5h-51q11 8 16 28l59 279q5 22 -1 36.5t-18 23t-26.5 12t-26.5 3.5q-29 0 -60.5 -11t-65.5 -34q13 -11 16.5 -18.5t1.5 -15.5
l-47 -224q-5 -25 -2.5 -39.5t20.5 -23.5l-3 -16h-75q-13 0 -19.5 -2t-15.5 -5l54 253q7 32 7 59t-20 48q22 12 43.5 24.5t47 23t56.5 17t71 6.5q55 0 85 -13.5t42 -35t11 -49t-7 -55.5l-24 -115q-4 -17 3 -33t19.5 -29.5t29 -22.5t31.5 -11q12 -2 25 -1t24.5 7t21 19
t14.5 35l57 272q4 12 -4 22h95z" />
    <glyph glyph-name="yoyingthai" unicode="&#xe0d;" horiz-adv-x="671" 
d="M737 414q-12 -9 -14 -22l-75 -351q-22 -105 -83.5 -156.5t-164.5 -41.5q-23 2 -47 7t-43 14l3 33q20 -10 40.5 -14t38.5 -6q25 -2 53 2t54 21.5t47.5 52.5t34.5 96q-19 -20 -39.5 -32t-40 -18.5t-37.5 -8.5t-32 -2q-54 0 -81.5 31t-16.5 85l43 203q5 22 -1 36.5t-18 23
t-26.5 12t-26.5 3.5q-29 0 -60.5 -11t-65.5 -34q13 -11 16.5 -18.5t1.5 -15.5l-47 -224q-5 -25 -2.5 -39.5t20.5 -23.5l-3 -16h-76q-11 0 -18.5 -2t-15.5 -6l54 254q7 32 7 59t-20 48q22 12 43.5 24.5t47 23t56.5 17t71 6.5q56 0 86 -13.5t42 -35t11 -49t-7 -55.5l-33 -154
q-6 -29 -2.5 -47t13.5 -28t25.5 -12t34.5 0q38 3 69 36.5t42 82.5l51 244q2 5 0.5 11t-4.5 10h95z" />
    <glyph glyph-name="dochadathai" unicode="&#xe0e;" horiz-adv-x="420" 
d="M385 -18q-8 -34 -22.5 -63.5t-34.5 -51t-43.5 -33t-49.5 -10.5l-54 2l-23 27l-19 -24q-11 6 -21 6h-62q4 5 10 14t13 18t14 16t13 9q1 0 6 0.5t10 0.5q13 0 19.5 -4t12.5 -15q24 0 46.5 1t41.5 8t34 22.5t24 44.5q4 11 6 21t4 21l67 314q4 22 -2 36.5t-17.5 23.5
t-26 12.5t-26.5 3.5q-29 0 -60.5 -11t-65.5 -34q13 -11 16.5 -18t1.5 -16l-65 -309q-8 2 -15 4t-19 2h-73l3 16q22 9 31 23.5t14 39.5l36 167q7 32 7 59t-20 48q22 12 43.5 24.5t47 23t56.5 17t71 6.5q56 0 86 -13.5t42 -35t11 -49t-7 -55.5z" />
    <glyph glyph-name="topatakthai" unicode="&#xe0f;" horiz-adv-x="420" 
d="M389 2q-7 -31 -18 -62t-29 -56.5t-45.5 -42t-68.5 -18.5h-11l-10 39l-92 -43l-12 36q-30 -26 -47.5 -30t-29.5 -4q-21 0 -26.5 14.5t-10.5 33.5q-3 11 -3.5 20.5t-2.5 14.5l47 1q9 0 16 4l12 -43l108 54l9 -31q33 -1 55.5 2.5t38 14.5t25 30.5t15.5 51.5l68 318
q4 22 -2 36.5t-17.5 23.5t-26 12.5t-26.5 3.5q-29 0 -60.5 -11t-65.5 -34q13 -11 16.5 -18t1.5 -16l-65 -309q-8 2 -15 4t-19 2h-73l3 16q22 9 31 23.5t14 39.5l36 167q7 32 7 59t-20 48q22 12 43.5 24.5t47 23t56.5 17t71 6.5q56 0 86 -13.5t42 -35t11 -49t-7 -55.5z" />
    <glyph glyph-name="thothanthai" unicode="&#xe10;" horiz-adv-x="399" 
d="M471 473q-9 -28 -32.5 -52t-51.5 -38q23 -26 30.5 -66t-6.5 -100q-32 -133 -106.5 -187t-189.5 -36l-4 214q0 21 -7.5 39t-24.5 23l1 9h46h25.5t26.5 5l5 -189q0 -8 -0.5 -23t-6.5 -26q66 2 103 43.5t56 113.5q13 49 8.5 83t-21 56t-41.5 33t-53 13q-30 2 -62 -9t-62 -23
l24 48q35 13 67 19t74 5q27 0 51.5 -6.5t44.5 -20.5q20 20 32 40.5t15 31.5q25 -1 59 0zM379 -49q-11 -30 -28.5 -55t-37.5 -43t-41.5 -27.5t-40.5 -8.5l-22 2l-11 43l-67 -41l-10 39q-17 -18 -28.5 -27t-19.5 -12.5t-13.5 -3.5h-10.5q-14 0 -20.5 7t-11.5 24q-3 14 -6 27
t-5 27h45h7.5t11.5 2l9 -41l80 57l8 -36q27 -2 50 -1t41 7.5t31 20t19 36.5h37h10q6 1 12 1.5t12 2.5z" />
    <glyph glyph-name="thonangmonthothai" unicode="&#xe11;" horiz-adv-x="423" 
d="M398 23q-2 -13 5 -23h-95q5 4 8.5 10.5t5.5 11.5l62 292q6 30 -5 42t-31 10t-46 -14.5t-50 -32t-42 -43t-23 -46.5l-44 -211q-3 -8 3 -19h-91q4 5 7 10t4 10l36 169q8 33 21.5 66.5t39.5 60.5l18 19q-19 -6 -31 -3.5t-20.5 11t-13.5 21.5t-9 27q-2 6 -3 12t-2 11h34
q1 0 4 0.5t8 1.5q0 -1 0.5 -3.5l1.5 -7.5q5 -19 10.5 -28t22.5 -9t27.5 16t14.5 33h31q1 -8 -1.5 -25.5t-11.5 -39.5q29 26 53.5 40.5t44.5 21t34.5 8t23.5 1.5q36 0 55 -24t10 -66z" />
    <glyph glyph-name="thophuthaothai" unicode="&#xe12;" horiz-adv-x="713" 
d="M228 171q10 13 12 24t-1 19.5t-10 13.5t-15 5l2 8l96 -1q8 0 11 -3t3 -7.5t-1.5 -9.5t-3.5 -8l-171 -222q-28 6 -47.5 27.5t-29.5 53t-11 71.5t8 83q11 53 32.5 90t48 61t54 35.5t49.5 13.5l54 -57l79 57q29 -2 50.5 -16t35 -36t17.5 -50t-2 -57l-21 -98q-3 -15 2 -30.5
t15 -29.5t23 -25.5t26 -17.5q14 -7 28 -10.5t27 0.5t23 16.5t16 38.5l60 282q1 5 0 11.5t-4 10.5h93q-4 -4 -7.5 -10.5t-4.5 -11.5l-67 -315q-7 -33 -32 -57t-57 -29q-17 -2 -36.5 0t-39.5 12.5t-39.5 32.5t-37.5 60l-23 -106q-8 5 -14 7.5t-17 2.5h-53q12 7 15 28l51 237
q6 27 2 45.5t-14 30.5t-23 18t-25 8l-55 -40l-35 40q-17 -3 -35.5 -12t-35 -25.5t-29.5 -40.5t-20 -57q-11 -48 -9 -85.5t13 -79.5z" />
    <glyph glyph-name="nonenthai" unicode="&#xe13;" horiz-adv-x="674" 
d="M739 414q-4 -4 -8.5 -11t-5.5 -12l-78 -369q-3 -12 4 -22h-46q-7 0 -18.5 -2t-22.5 -6q4 13 8 31.5t8 36.5q2 10 4 21l4 22q-36 -42 -67 -64.5t-56.5 -33.5t-44 -13t-28.5 -2q-36 0 -53.5 23.5t-8.5 65.5l48 228q4 21 -2 35.5t-17.5 23.5t-26 12.5t-26.5 3.5
q-29 0 -60.5 -11t-65.5 -34q13 -11 16.5 -18t1.5 -16l-47 -225q-5 -25 -2.5 -39t20.5 -23l-3 -16h-75q-11 0 -19 -2t-17 -6l55 255q6 32 6.5 58.5t-19.5 47.5q22 12 43.5 24.5t47 23t56.5 17t71 6.5q56 0 86 -13.5t42.5 -35t11.5 -49t-7 -55.5l-37 -172q-6 -27 0 -38.5
t19.5 -13t31.5 4t35 13.5q16 8 33.5 20t32.5 27t26 32.5t15 37.5l44 210q2 5 0.5 11.5t-4.5 10.5h95z" />
    <glyph glyph-name="dodekthai" unicode="&#xe14;" horiz-adv-x="462" 
d="M347 0q11 8 13 21l50 237q7 32 1.5 56t-20.5 39.5t-36.5 23.5t-46.5 8q-21 0 -46.5 -8.5t-49 -27t-42.5 -47.5t-28 -70q-11 -51 -8.5 -90t12.5 -77l82 106q10 13 12 24t-1 19.5t-10 13.5t-15 5l2 8l96 -1q8 0 11 -3t3 -7.5t-1.5 -9.5t-3.5 -8l-171 -222q-31 5 -51 26
t-29.5 53.5t-9.5 72.5t9 83q12 58 37 97t58.5 62.5t72.5 33.5t80 10q52 0 88 -13.5t56.5 -37.5t26 -56.5t-2.5 -70.5l-49 -228q-1 -5 1 -11.5t4 -10.5h-94z" />
    <glyph glyph-name="totaothai" unicode="&#xe15;" horiz-adv-x="463" 
d="M228 171q10 13 12 24t-1 19.5t-10 13.5t-15 5l2 8l96 -1q8 0 11 -3t3 -7.5t-1.5 -9.5t-3.5 -8l-171 -222q-28 6 -47.5 27.5t-29.5 53t-11 71.5t8 83q11 53 32.5 90t48 61t54 35.5t49.5 13.5l54 -57l79 57q29 -2 50.5 -16t34.5 -36t17 -49.5t-2 -56.5l-52 -244
q-1 -5 1 -12t5 -11h-93q5 4 8.5 11t4.5 12l52 243q6 27 2 45t-13.5 30t-22.5 18t-25 8l-55 -40l-35 40q-17 -3 -35.5 -12t-35 -25.5t-29.5 -40.5t-20 -57q-11 -48 -9 -85.5t13 -79.5z" />
    <glyph glyph-name="thothungthai" unicode="&#xe16;" horiz-adv-x="417" 
d="M393 22q-2 -13 5 -22h-95q5 4 8.5 10.5t5.5 11.5l59 281q5 21 -1 36t-17.5 24.5t-26 14t-26.5 4.5q-58 0 -125 -46q12 -10 15.5 -17t1.5 -17l-47 -223q-5 -25 -2.5 -39.5t20.5 -23.5l-3 -16h-75q-11 0 -18.5 -1t-16.5 -5l54 252q7 32 7 59t-19 48q22 12 43.5 24.5
t46.5 23t55.5 17t71.5 6.5q55 0 85 -13.5t42.5 -35.5t11.5 -49.5t-7 -55.5z" />
    <glyph glyph-name="thothahanthai" unicode="&#xe17;" horiz-adv-x="420" 
d="M394 23q-4 -12 5 -23h-95q5 4 8.5 10.5t4.5 11.5l62 292q6 30 -5 42t-31 10.5t-45.5 -14t-49.5 -32t-42 -43t-23 -46.5l-45 -208q-2 -13 5 -23h-95q5 4 8.5 10.5t5.5 11.5l68 323q5 25 2.5 39.5t-20.5 23.5l1 6h65q16 0 24 2t21 7l-23 -112q36 42 67 64.5t56 33
t43.5 12.5t28.5 2q36 0 54.5 -24t10.5 -66z" />
    <glyph glyph-name="thothongthai" unicode="&#xe18;" horiz-adv-x="391" 
d="M404 368q-15 8 -35.5 14.5t-37.5 8.5q-20 1 -41.5 -0.5t-40.5 -7t-32.5 -16t-17.5 -28.5q-3 -14 5.5 -25t22 -19.5t28.5 -15t25 -11.5q21 -11 42.5 -23.5t38 -29t24.5 -39t1 -53.5q-12 -56 -46.5 -85.5t-80.5 -40.5t-98.5 -6.5t-100.5 17.5l42 199h80l-39 -182
q27 -1 53 2t47.5 12t36.5 24t20 38q5 21 1.5 37t-14 28.5t-27 23.5t-37.5 22q-17 9 -37.5 19.5t-37.5 24t-27 31.5t-5 43q4 19 16.5 37t34.5 31.5t54 21t74 6.5q27 -1 59.5 -4.5t58.5 -11.5z" />
    <glyph glyph-name="nonuthai" unicode="&#xe19;" horiz-adv-x="421" 
d="M485 414q-5 -4 -8.5 -10.5t-5.5 -11.5l-75 -355q-3 -14 1.5 -23t7.5 -14h-54q-7 0 -18.5 -2t-22.5 -6q4 13 8 30t7 32q4 18 6 36q-30 -30 -58 -50t-52 -31.5t-43.5 -16t-33.5 -4.5q-40 0 -60 23.5t-11 65.5l56 268q5 25 3 39.5t-20 23.5l1 6h64q16 0 24 1.5t21 6.5
l-67 -314q-6 -29 -1 -42t15.5 -17t23.5 -1.5t23 5.5q16 4 37 15.5t40.5 26.5t34 32.5t18.5 34.5l49 230q2 12 -5 22h95z" />
    <glyph glyph-name="bobaimaithai" unicode="&#xe1a;" horiz-adv-x="416" 
d="M480 414q-4 -3 -8 -9.5t-5 -10.5l-57 -268q-6 -29 -20.5 -53.5t-38 -43t-56 -29t-75.5 -10.5q-44 0 -72.5 10t-45 27.5t-20.5 41.5t2 53l47 223q5 25 3 39.5t-20 23.5l1 6h64q16 0 24 2t21 7l-63 -300q-11 -48 9 -73t57 -25q38 0 67 26.5t39 71.5l57 271q2 5 0 10.5
t-5 9.5h95z" />
    <glyph glyph-name="poplathai" unicode="&#xe1b;" horiz-adv-x="416" 
d="M521 607q-4 -4 -8.5 -10.5t-5.5 -10.5l-98 -460q-6 -29 -20.5 -53.5t-37.5 -43t-56 -29t-75 -10.5q-44 0 -73 10t-45.5 27.5t-20.5 41.5t2 53l48 223q5 25 3 39.5t-21 23.5l2 6h64q15 0 23 2t22 7l-64 -300q-10 -48 9.5 -73t56.5 -25q38 0 67.5 26.5t38.5 71.5l99 463
q2 12 -5 21h95z" />
    <glyph glyph-name="phophungthai" unicode="&#xe1c;" horiz-adv-x="519" 
d="M413 -9q-18 4 -32.5 10.5t-25.5 14.5q-15 11 -22.5 27t-9.5 33q-3 23 -6 53t-6 57q-2 16 -3.5 31.5t-3.5 31.5l-148 -257q-16 5 -25.5 9t-18.5 15q-11 10 -17 38.5t-8 66.5t-1 81t4 82q1 14 6 32.5t12.5 37t18 36t22.5 29.5q7 -2 14 -3.5t16 -1.5h68l-2 -7
q-24 -11 -39 -26t-23.5 -30.5t-12.5 -31t-5 -27.5q-3 -24 -5 -57.5t-3 -66.5t0 -61.5t3 -41.5l125 219q2 3 5.5 12t-1.5 14h89l26 -245l116 272q8 18 14.5 33.5t9.5 29.5q2 8 -3 14h54z" />
    <glyph glyph-name="fofathai" unicode="&#xe1d;" horiz-adv-x="533" 
d="M640 619q4 -29 -2 -66.5t-19.5 -81t-32.5 -91.5t-40 -97l-133 -292q-18 4 -32.5 10.5t-25.5 14.5q-15 11 -22.5 27t-9.5 33q-3 23 -6 53t-6 57q-2 16 -3.5 31.5t-3.5 31.5l-148 -257q-16 5 -25.5 9t-18.5 15q-11 10 -17 38.5t-8 66.5t-1 81t4 82q1 14 6 32.5t12.5 37
t18 36t22.5 29.5q7 -2 14 -3.5t16 -1.5h68l-2 -7q-24 -11 -39 -26t-23.5 -30.5t-12.5 -31t-5 -27.5q-3 -24 -5 -57.5t-3 -66.5t0 -61.5t3 -41.5l125 219q2 3 5.5 12t-1.5 14h89l26 -245l66 152q21 54 48 118t46 127t23 98t0 59h53z" />
    <glyph glyph-name="phophanthai" unicode="&#xe1e;" horiz-adv-x="545" 
d="M422 -10q-8 2 -16 4.5t-18 6.5q-16 6 -31.5 20t-16.5 33q-2 42 -3.5 93.5t-3.5 102.5l-138 -260q-8 2 -14 4.5t-17 6.5q-11 5 -22 24t-12 37l-18 291q-1 12 -7.5 29t-17.5 25l2 7h38h11t13 1q9 0 19.5 1.5t19.5 5.5l16 -347l123 237q-2 40 -3 67.5t-1 35.5h78l10 -372
l141 299q5 12 10.5 26.5t9.5 23.5q3 11 0 23h50z" />
    <glyph glyph-name="fofanthai" unicode="&#xe1f;" horiz-adv-x="564" 
d="M672 622q8 -57 -21 -144t-80 -193q-18 -37 -39 -79t-41.5 -82.5t-38 -75.5l-28.5 -57q-21 3 -36 10q-16 6 -31.5 20t-16.5 33q-2 42 -3.5 93.5t-3.5 102.5l-138 -260q-8 2 -14 4.5t-17 6.5q-11 5 -22 24t-12 37l-18 291q-1 11 -7.5 28.5t-17.5 25.5l2 7h38h11t13 1
q9 0 19.5 1.5t19.5 5.5l16 -347l124 237q-2 40 -3.5 67.5t-1.5 35.5h78l10 -371q8 19 17 37t17 35q14 29 28 58.5t22 44.5q12 25 25.5 55t27 62t25.5 64.5t21 63.5q10 31 15.5 55t8 43t2 33.5t-1.5 26.5h52z" />
    <glyph glyph-name="phosamphaothai" unicode="&#xe20;" horiz-adv-x="418" 
d="M396 35q-2 -8 -2.5 -17t7.5 -16v-2h-101v2q11 7 14.5 16t5.5 17l58 272q4 21 -2 35.5t-17.5 23.5t-26 12.5t-26.5 3.5q-30 0 -61 -11t-65 -34q13 -11 16.5 -18t1.5 -15l-66 -311q-8 3 -14.5 5t-18.5 2h-73l3 16q22 9 31 23.5t14 39.5l36 168q6 32 6.5 58.5t-19.5 47.5
q22 12 43.5 24.5t47 23t56.5 17t71 6.5q55 0 85 -13.5t42 -35t11 -49t-7 -55.5z" />
    <glyph glyph-name="momathai" unicode="&#xe21;" horiz-adv-x="417" 
d="M486 414q-12 -9 -14 -22l-67 -315q-9 -42 -39 -65.5t-69 -23.5q-14 0 -32 4.5t-37 16t-38.5 31.5t-36.5 50l-21 -100q-8 5 -14.5 7.5t-17.5 2.5h-66l2 6q22 13 28 35.5t11 47.5l55 256q5 25 3 39.5t-21 23.5l2 6h63q15 0 23.5 1.5t22.5 6.5l-55 -260q-4 -17 3 -34.5
t20 -33t29 -26.5t31 -15q9 -3 21 -5.5t24 1.5t22.5 17t16.5 42l60 284q2 5 0.5 11.5t-4.5 10.5h95z" />
    <glyph glyph-name="yoyakthai" unicode="&#xe22;" horiz-adv-x="405" 
d="M474 414q-12 -9 -14 -22l-57 -266q-6 -29 -23.5 -54t-44 -43t-61.5 -28.5t-75 -10.5q-41 0 -70.5 10.5t-47.5 28.5t-24 42t0 51q3 12 7 27t16 31.5t35 32.5t63 29q-32 6 -48.5 18t-23 27t-5.5 33t5 36q5 20 19.5 39t40.5 19h67l-2 -9q-14 -5 -22 -10t-12.5 -11t-7 -14.5
t-5.5 -20.5q-10 -48 13 -69.5t61 -24.5l-5 -27q-47 -2 -76.5 -23.5t-41.5 -77.5q-4 -17 -2 -35t11 -32.5t24.5 -24t38.5 -9.5q41 0 74.5 22.5t44.5 72.5l57 271q4 12 -4 22h95z" />
    <glyph glyph-name="roruathai" unicode="&#xe23;" horiz-adv-x="377" 
d="M379 377q-33 14 -66 17q-20 1 -40.5 -2.5t-38 -11t-29.5 -19.5t-15 -28q-4 -17 0.5 -30t14.5 -23.5t23.5 -18t28.5 -14.5q21 -10 42 -20.5t36.5 -25t23.5 -33.5t2 -46q-12 -57 -47 -88t-81.5 -42.5t-99 -7t-100.5 18.5l5 42q23 -10 46.5 -17t46.5 -9q23 -3 46 -1
t42.5 9.5t33 21.5t18.5 35q4 21 -1 36.5t-16.5 27.5t-26.5 21t-31 17q-17 8 -35.5 19t-33.5 25.5t-23 32t-3 38.5q12 57 57 92t126 33q26 -1 51.5 -4.5t50.5 -8.5z" />
    <glyph glyph-name="ruthai" unicode="&#xe24;" horiz-adv-x="418" 
d="M349 -186q-5 -12 4 -24h-95q5 4 9 11t6 12l105 494q4 21 -2 35.5t-17.5 23.5t-26 12.5t-26.5 3.5q-30 0 -61 -11t-65 -34q13 -11 16.5 -18t1.5 -15q-9 -41 -14.5 -66.5t-9.5 -42t-6 -27t-4.5 -22t-5.5 -27t-8 -41.5q-5 -25 -2.5 -39t21.5 -23l-3 -16h-74q-11 0 -19 -1.5
t-17 -4.5q5 23 9.5 45t9.5 45q8 38 17.5 82t17.5 81q6 32 6.5 58.5t-19.5 47.5q22 12 43.5 24.5t47 23t56.5 17t71 6.5q55 0 85 -13.5t42 -35t11 -49t-7 -55.5z" />
    <glyph glyph-name="lolingthai" unicode="&#xe25;" horiz-adv-x="395" 
d="M374 36q-2 -8 -1.5 -17.5t8.5 -16.5v-2h-91l50 234q-15 -10 -28 -16t-25.5 -10.5t-26 -8.5t-29.5 -10q-19 -7 -36.5 -13t-32 -15.5t-24 -23.5t-12.5 -36q-6 -38 19 -59t79 -11l-14 -30q-42 -10 -74.5 -7.5t-54 15.5t-30.5 36t-3 55q6 29 21.5 48.5t36.5 33t46 23t49 17.5
q17 5 41.5 11t48 15.5t42 24t23.5 36.5q6 30 -6 49t-42.5 25t-79.5 -3t-116 -36l14 41q81 33 142.5 40.5t100.5 -5.5t55 -44t7 -74z" />
    <glyph glyph-name="luthai" unicode="&#xe26;" horiz-adv-x="418" 
d="M349 -186q-5 -12 4 -24h-95q5 4 9 11t6 12l105 494q4 21 -2 35.5t-17.5 23.5t-26 12.5t-26.5 3.5q-30 0 -61 -11t-65 -34q13 -11 16.5 -18t1.5 -15q-13 -62 -22 -103.5t-16 -74.5t-13.5 -63t-14.5 -69q-8 3 -15 4.5t-18 1.5h-74l3 16q23 9 32 23t14 39q2 11 5 23t5 25
q5 23 11.5 53.5t14.5 67.5q6 32 6.5 58.5t-19.5 47.5q22 12 43.5 24.5t47 23t56.5 17t71 6.5q55 0 85 -13.5t42 -35t11 -49t-7 -55.5z" />
    <glyph glyph-name="wowaenthai" unicode="&#xe27;" horiz-adv-x="383" 
d="M403 218q-13 -60 -41.5 -103t-64.5 -70.5t-75 -40t-73 -12.5q-40 0 -72 7l11 50q34 -14 69 -10t66 23t55 51.5t36 76.5q12 45 7.5 87t-28 68.5t-66.5 32.5t-109 -21l16 42q66 26 121 23t92 -29t52.5 -71.5t3.5 -103.5z" />
    <glyph glyph-name="sosalathai" unicode="&#xe28;" horiz-adv-x="462" 
d="M544 469q-8 -19 -27 -43.5t-56 -43.5q43 -43 26 -129l-49 -231q-3 -12 4 -22h-94q11 8 13 21l51 237q12 58 -15.5 92t-85.5 34q-31 0 -58.5 -12t-49.5 -32.5t-38 -48.5t-23 -60q-8 -38 -9 -70t10 -64q11 24 29.5 53.5t41.5 54.5t50 39.5t54 7.5l4 -48q-19 6 -38 -5.5
t-38 -32.5t-36 -48t-31.5 -52.5t-24.5 -46t-15 -27.5q-51 18 -70 77t-2 144q12 57 38.5 97.5t61 66.5t74.5 38t79 12q69 0 110 -22q18 17 26.5 33t13.5 31q14 -1 35 -1t39 1z" />
    <glyph glyph-name="sorusithai" unicode="&#xe29;" horiz-adv-x="435" 
d="M480 240h-40l-8 -39l-16 -76q-12 -58 -60 -96.5t-134 -38.5q-88 0 -121 37.5t-21 94.5l48 222q5 25 3 40t-21 24l2 6h63q15 0 23.5 1.5t22.5 6.5l-64 -300q-10 -48 12.5 -72.5t58.5 -24.5q38 0 69.5 26t41.5 71l17 80l9 40h-72l12 55q2 -4 7.5 -8.5t13.5 -4.5
q2 0 14 -0.5t34 -0.5l8 43l15 68q2 12 -5 20h95q-4 -3 -8.5 -9.5t-5.5 -10.5l-14 -69l-10 -43h30t18 1z" />
    <glyph glyph-name="sosuathai" unicode="&#xe2a;" horiz-adv-x="395" 
d="M474 471q-6 -17 -20.5 -37.5t-40.5 -41.5q30 -35 18 -90l-57 -266q-2 -8 -1.5 -17.5t8.5 -16.5v-2h-91l50 234q-15 -10 -28 -16t-25.5 -10.5t-26 -8.5t-29.5 -10q-19 -7 -36.5 -13t-32 -15.5t-24 -23.5t-12.5 -36q-6 -38 19 -59t79 -11l-14 -30q-42 -10 -74.5 -7.5
t-54 15.5t-30.5 36t-3 55q6 29 21.5 48.5t36.5 33t46 23t49 17.5q17 5 41.5 11t48 15.5t42 24t23.5 36.5q6 30 -6 49t-42.5 25t-79.5 -3t-116 -36l14 41q88 35 151 41.5t101 -10.5q12 17 17.5 31t7.5 24q14 -1 34 -1t37 1z" />
    <glyph glyph-name="hohipthai" unicode="&#xe2b;" horiz-adv-x="425" 
d="M299 279q15 0 39.5 -3t46.5 -14.5t35 -33.5t5 -60l-31 -146q-2 -13 5 -22h-93q12 10 13 21l25 116q2 5 2.5 12t2.5 14q5 24 -0.5 41.5t-18 29t-30 16.5t-35.5 5l-94 -68l-35 -165q-2 -5 0 -11.5t5 -10.5h-96q13 9 14 21l69 323q5 25 3 40t-21 24l2 6h63q15 0 23.5 1.5
t22.5 6.5l-39 -181l111 79q20 14 39 30t26 39q5 13 0 25h129z" />
    <glyph glyph-name="lochulathai" unicode="&#xe2c;" horiz-adv-x="549" 
d="M663 618q-7 -29 -24 -63t-47 -57q21 -17 26 -39t1.5 -45.5t-13 -47.5t-18.5 -43q-18 -42 -41 -90t-46 -94t-43.5 -85.5t-33.5 -63.5q-8 2 -16 5t-19 7q-15 6 -31.5 19.5t-17.5 32.5q-2 42 -3.5 93.5t-3.5 102.5l-138 -260q-8 2 -14 4.5t-17 6.5q-11 5 -22 24t-12 37
l-18 291q-1 12 -7.5 29t-17.5 25l2 7h38h11t13 1q9 0 19.5 1.5t19.5 5.5l15 -345l125 236q-2 28 -3 47q-1 18 -1.5 34.5t-0.5 20.5h78l10 -372q23 49 42.5 88t36 72.5t30.5 63.5t26 61q13 31 19 55.5t6 45t-5.5 38t-15.5 34.5q19 22 34.5 53.5t20.5 63.5q25 -1 56 0z" />
    <glyph glyph-name="oangthai" unicode="&#xe2d;" horiz-adv-x="417" 
d="M445 233q-8 -54 -29 -99.5t-52.5 -78t-71 -50.5t-84.5 -18q-79 0 -118 47.5t-19 144.5q5 25 17 51.5t24 41.5q8 -4 16 -6.5t16 -2.5h54l-2 -7q-13 -6 -21.5 -17t-14.5 -24t-9.5 -27l-6.5 -26q-5 -24 -3.5 -46.5t10.5 -39.5t26 -27t43 -10q27 0 51.5 15.5t44 41.5t32.5 61
t18 73q6 46 -3 76t-28.5 46.5t-47.5 21.5t-60 0.5t-65.5 -17.5t-63.5 -31l19 49q38 22 79.5 35t80.5 15t73 -7.5t58 -33t34.5 -61t2.5 -90.5z" />
    <glyph glyph-name="honokhukthai" unicode="&#xe2e;" horiz-adv-x="417" 
d="M483 471q-5 -16 -23.5 -41t-48.5 -49q22 -23 32 -59.5t2 -88.5q-8 -54 -29 -99.5t-52.5 -78t-71 -50.5t-84.5 -18q-79 0 -118 47.5t-19 144.5q5 25 17 51.5t24 41.5q8 -4 16 -6.5t16 -2.5h54l-2 -7q-13 -6 -21.5 -17t-14.5 -24t-9.5 -27l-6.5 -26q-5 -24 -3.5 -46.5
t10.5 -39.5t26 -27t43 -10q27 0 51.5 15.5t44 41.5t32.5 61t18 73q6 46 -3 76t-28.5 46.5t-47.5 21.5t-60 0.5t-65.5 -17.5t-63.5 -31l19 49q33 19 68.5 31.5t70 16.5t66 0t57.5 -18q14 19 23 39t10 27q14 -1 34 -1t37 1z" />
    <glyph glyph-name="paiyannoithai" unicode="&#xe2f;" horiz-adv-x="490" 
d="M516 414q-12 -16 -21.5 -33.5t-15.5 -47.5l-95 -444q-6 2 -13.5 3.5t-18.5 1.5h-54q9 13 14.5 27t9.5 30l43 206q-27 -20 -49 -31t-40.5 -16.5t-32.5 -6.5t-24 -1q-32 0 -57 11t-41 32t-21 51t3 69q7 33 24 61.5t41 49.5t54 32.5t63 11.5h7l3 -36q-9 -1 -18 -5
q-11 -6 -26 -16t-29.5 -24t-26.5 -34.5t-18 -47.5q-11 -48 11 -79t74 -31q20 0 40 8.5t37 23t29.5 34t17.5 41.5l34 160h96z" />
    <glyph glyph-name="saraathai" unicode="&#xe30;" horiz-adv-x="229" 
d="M281 304q-44 -32 -82.5 -42.5t-66 -5.5t-42 21t-11.5 37l68 32q3 -16 16.5 -25t33.5 -9q17 -1 40 5.5t46 20.5zM238 104q-44 -32 -82 -42t-65.5 -5.5t-42 20.5t-11.5 37l68 32q3 -16 16.5 -25t32.5 -9q17 -1 40.5 5.5t46.5 20.5z" />
    <glyph glyph-name="maihanakatthai" unicode="&#xe31;" 
d="M162 569q-74 -38 -138.5 -50.5t-113 -8t-78 22.5t-32.5 41l96 26q4 -24 30 -36t53 -14q30 -2 80.5 10.5t110.5 38.5z" />
    <glyph glyph-name="saraaathai" unicode="&#xe32;" horiz-adv-x="259" 
d="M231 22q-2 -13 5 -22h-95q12 9 14 21l63 297q6 25 -2.5 41t-27.5 21t-46 0.5t-58 -19.5l12 29q51 31 90.5 34.5t66 -9t38 -37t6.5 -49.5z" />
    <glyph glyph-name="saraamthai" unicode="&#xe33;" horiz-adv-x="259" 
d="M123 567q-7 -31 -32 -49t-67 -18t-59.5 18t-10.5 49q6 30 31.5 48.5t67.5 18.5t59 -18t11 -49zM231 22q-2 -13 5 -22h-95q12 9 14 21l63 297q6 25 -2.5 41t-27.5 21t-46 0.5t-58 -19.5l12 29q51 31 90.5 34.5t66 -9t38 -37t6.5 -49.5zM80 567q4 19 -7.5 27.5t-26.5 8.5
t-29.5 -8.5t-18.5 -27.5q-5 -19 6.5 -27.5t26.5 -8.5t29.5 8.5t19.5 27.5z" />
    <glyph glyph-name="saraithai" unicode="&#xe34;" 
d="M82 500q-23 3 -44 4t-45 1l-192 3q-17 0 -40.5 -1t-49.5 -4l12 16q9 13 17.5 21.5t15.5 13.5q4 3 13 4.5t16 1.5l247 -2q5 0 13.5 -0.5t11.5 -4.5q4 -4 9.5 -13.5t7.5 -17.5z" />
    <glyph glyph-name="saraiithai" unicode="&#xe35;" 
d="M107 628q-4 -7 -5.5 -12t-3.5 -12l-21 -99l2 -7q-11 1 -19 2t-15 2t-15 1.5t-20 0.5l-215 3q-17 0 -40 -1t-49 -4l11 15q9 13 17 21.5t15 13.5q5 3 15 5.5t15 2.5l234 -3l11 48q2 8 1.5 13t-2.5 10h84z" />
    <glyph glyph-name="sarauethai" unicode="&#xe36;" 
d="M105 572q-6 -28 -30 -48t-63 -19h-16q-2 0 -6.5 0.5t-13.5 0.5l-191 2q-16 0 -36.5 -0.5t-43.5 -3.5l5 8q8 12 17.5 24.5t15.5 17.5q3 2 11.5 4t14.5 2q11 -1 22.5 -1h24.5q21 0 47.5 -0.5t52.5 -0.5q2 0 4.5 -0.5t5.5 -0.5q10 0 14 -2l5 -2.5t0 2t0 10.5q0 5 2 7
q5 28 29 45t63 17t55 -17t11 -45zM70 572q4 20 -8 29.5t-28 9.5t-32 -9.5t-20 -29.5q-5 -20 7 -29.5t28 -9.5t32 9.5t21 29.5z" />
    <glyph glyph-name="saraueethai" unicode="&#xe37;" 
d="M108 629q-7 -11 -10 -25l-20 -98l2 -8q-23 4 -39.5 5.5t-40.5 1.5l-205 2q-17 0 -40.5 -1t-49.5 -4q8 11 20 26.5t24 23.5q5 5 14 6.5t16 1.5l155 -1l10 46q1 6 1.5 12.5t-1.5 11.5h54l-16 -73l56 -1l16 74h54z" />
    <glyph glyph-name="sarauthai" unicode="&#xe38;" 
d="M-70 -182h-74l12 57q5 18 4.5 32t-14.5 21l2 6h67q20 0 29 4z" />
    <glyph glyph-name="sarauuthai" unicode="&#xe39;" 
d="M-63 -152q-1 -6 -7 -16.5t-21.5 -21t-42.5 -18.5t-71 -8t-67 8t-33.5 18.5t-11.5 21t0 16.5l5 27q5 18 4.5 32t-14.5 21l1 6h68q20 0 29 4l-16 -76q-7 -29 5 -43t36 -14q23 0 40.5 13t24.5 44l15 72h74z" />
    <glyph glyph-name="phinthuthai" unicode="&#xe3a;" 
d="M-52 -137q-5 -20 -22.5 -35t-37.5 -15t-32 15t-7 35t23 35t38 15t31.5 -15t6.5 -35z" />
    <glyph glyph-name="PUCR2005" unicode="&#xe3e;" 
 />
    <glyph glyph-name="bahtthai" unicode="&#xe3f;" horiz-adv-x="433" 
d="M450 163q-8 -38 -28 -68t-47 -51t-59 -32.5t-63 -11.5q-5 -21 -6 -36.5t8 -31.5v-2h-87v2q17 17 22.5 32t10.5 36h-166q17 15 25.5 29t11.5 29l93 436q3 14 0.5 28.5t-13.5 29.5h166l8 40q4 16 3.5 31.5t-8.5 27.5v2h87v-2q-13 -14 -19.5 -28.5t-10.5 -30.5l-8 -40h3
q23 0 44 -7t36 -21t22 -35.5t3 -50.5q-3 -19 -13 -38.5t-25 -37t-34 -32t-41 -23.5q48 -11 72.5 -50t12.5 -94zM386 411q5 23 -1.5 47t-26.5 38l-34 -160q24 11 40 32.5t22 42.5zM308 505q-12 -1 -26.5 -2.5t-26.5 -4.5l-36 -169q8 -1 23.5 -2t26.5 -2zM368 176
q4 33 -10 63.5t-46 39.5l-48 -225q42 11 69.5 42.5t34.5 79.5zM260 280l-52 -3l-47 -221q10 -2 23 -3t26 -3z" />
    <glyph glyph-name="saraethai" unicode="&#xe40;" horiz-adv-x="165" 
d="M221 414q-4 -4 -8.5 -10.5t-5.5 -11.5l-68 -322q-5 -25 -3 -40t21 -25l-2 -5h-75q-11 0 -18.5 -1.5t-15.5 -3.5l85 396q1 5 -0.5 12t-4.5 11h95z" />
    <glyph glyph-name="saraaethai" unicode="&#xe41;" horiz-adv-x="342" 
d="M392 414q-12 -9 -14 -22l-69 -322q-5 -25 -2.5 -40t20.5 -25l-1 -5h-75q-11 0 -18.5 -1.5t-15.5 -3.5l84 396q1 5 0 12t-4 11h95zM221 414q-4 -4 -8.5 -10.5t-5.5 -11.5l-68 -322q-5 -25 -3 -40t21 -25l-2 -5h-75q-11 0 -18.5 -1.5t-15.5 -3.5l85 396q1 5 -0.5 12
t-4.5 11h95z" />
    <glyph glyph-name="saraothai" unicode="&#xe42;" horiz-adv-x="214" 
d="M420 719q-11 4 -27 4q-35 0 -62 -17.5t-38 -45.5q-5 -14 -6 -25q-1 -5 -1 -10.5t-2 -10.5l-116 -548q-5 -22 -4 -38.5t14 -27.5h-78q-7 0 -12.5 -0.5t-10.5 -1.5l118 553q4 21 6 34t3.5 22l2.5 15t3 13q11 38 30 62t42.5 37.5t50.5 18t56 4.5q30 0 53 -6z" />
    <glyph glyph-name="saraaimaimuanthai" unicode="&#xe43;" horiz-adv-x="195" 
d="M184 0h-75q-11 0 -19 -1.5t-16 -3.5l112 527q4 18 19 38t31 37t29.5 30t14.5 17q4 19 0 33.5t-13 24t-21.5 14.5t-25.5 5q-8 0 -19.5 -2t-23.5 -8t-23 -16t-17 -26h-32q9 25 24 42t32 27t33.5 14t28.5 4q26 1 52.5 -4t46 -19t29 -38t1.5 -61q-1 -5 -14 -18t-28.5 -29.5
t-29.5 -33.5t-17 -30l-97 -453q-5 -25 -2.5 -40t21.5 -25z" />
    <glyph glyph-name="saraaimaimalaithai" unicode="&#xe44;" horiz-adv-x="195" 
d="M291 635q-2 -14 -8 -34.5t-12 -49.5l-103 -481q-5 -25 -2.5 -40t21.5 -25l-2 -5h-75q-11 0 -18.5 -1.5t-15.5 -3.5l132 618q2 11 5.5 22.5t4.5 23.5q2 29 -18 48t-55 19h-15t-20 1l7 29q8 0 19 0.5t28 0.5q28 0 53.5 -4.5t43.5 -18t26.5 -37.5t3.5 -62z" />
    <glyph glyph-name="lakkhangyaothai" unicode="&#xe45;" horiz-adv-x="269" 
d="M197 -188q-3 -12 4 -22h-94q5 4 8.5 10t5.5 11l107 504q11 51 -22 66.5t-106 -0.5l8 21q59 23 99.5 22.5t64.5 -14t32 -36.5t3 -45z" />
    <glyph glyph-name="maiyamokthai" unicode="&#xe46;" horiz-adv-x="550" 
d="M444 -158q-3 -12 4 -22h-87q5 4 9.5 10.5t5.5 11.5l85 401q3 14 5 24l4 20q4 18 4.5 31.5t-4 23.5t-16 15t-32.5 5l-40 -30l-27 30q-28 0 -54.5 -16t-34.5 -53l-36 13q11 54 43.5 83t72.5 29l45 -47l68 48q45 0 69 -30.5t16 -75.5z" />
    <glyph glyph-name="maitaikhuthai" unicode="&#xe47;" 
d="M153 689q-12 -17 -29 -25t-49 -7q-12 0 -38.5 0.5t-54.5 1t-52 1.5t-32 2q-28 2 -47.5 -16t-24.5 -41q-4 -19 1 -34.5t34 -15.5q13 0 29.5 9t27.5 19q7 -9 19.5 -18.5t28.5 -9.5q23 0 30.5 17t2.5 37l68 3q6 -23 0 -42.5t-19.5 -34t-31 -23t-34.5 -9.5q-9 0 -18 1
t-18 5.5t-17.5 13.5t-17.5 25q-26 -30 -48 -38t-40 -7q-44 2 -58.5 30t-6.5 65q4 19 13.5 37t25 32t36 23t46.5 9q52 0 106.5 -1.5t96.5 -1.5q14 0 25.5 4.5t19.5 11.5z" />
    <glyph glyph-name="maiekthai" unicode="&#xe48;" 
d="M139 820q-3 -8 -5 -13.5t-4 -11.5l-19 -89q-1 -7 -1.5 -13.5t0.5 -11.5h-70q4 7 6 13.5t4 11.5l18 88q4 16 0 26h71z" />
    <glyph glyph-name="maithothai" unicode="&#xe49;" 
d="M221 759q-35 -25 -72.5 -39.5t-73.5 -20.5t-67 -4t-52 11q17 24 24.5 50.5t2.5 47.5l75 18q4 -11 -0.5 -30.5t-26.5 -52.5q21 -4 46 -2t51.5 7.5t51 14.5t43.5 20z" />
    <glyph glyph-name="maitrithai" unicode="&#xe4a;" 
d="M214 826q-1 -24 -8.5 -46.5t-19.5 -41.5t-27 -32.5t-31 -18.5l-32 11q15 26 7 44t-28 20q-20 1 -39 -18q-11 18 -28 18q-9 0 -19 -5t-18 -13.5t-12.5 -20.5t-2.5 -25l-32 -13q-5 6 -9 19.5t2 34.5q4 15 13 27t19.5 20t21 12.5t18.5 4.5q16 0 27.5 -3.5t25.5 -25.5
q22 21 36.5 24.5t25.5 4.5q17 0 27.5 -7.5t14.5 -19t3 -26t-6 -27.5q11 12 21 27.5t16 39.5q2 8 3.5 17t0.5 20z" />
    <glyph glyph-name="maichattawathai" unicode="&#xe4b;" 
d="M207 733q-5 2 -7 2.5t-4 1.5q-1 1 -6 1h-60l-11 -51v-7l1 -4v-8h-66q2 4 5.5 9t4.5 9l11 52h-58q-5 0 -8.5 -1t-13.5 -5q2 10 4.5 21t5.5 28q8 -3 11 -4t6 -1h61l10 49q2 9 -1 20h66q-2 -5 -5 -9.5t-5 -9.5l-10 -50h60q4 0 10 2t10 3z" />
    <glyph glyph-name="thanthakhatthai" unicode="&#xe4c;" 
d="M140 753q-11 -10 -26 -19t-27 -15t-20 -17t-12 -24t-3.5 -26t6.5 -23l-48 -19q-13 9 -17 22.5t-1 29t13.5 30t26.5 24.5q13 8 24 13t25 10q11 5 23.5 11t26.5 17z" />
    <glyph glyph-name="nikhahitthai" unicode="&#xe4d;" 
d="M104 567q-7 -31 -32 -49t-67 -18t-59.5 18t-10.5 49q6 30 31.5 48.5t67.5 18.5t59 -18t11 -49zM61 567q4 19 -7.5 27.5t-26.5 8.5t-29.5 -8.5t-18.5 -27.5q-5 -19 6.5 -27.5t26.5 -8.5t29.5 8.5t19.5 27.5z" />
    <glyph glyph-name="yamakkanthai" unicode="&#xe4e;" 
d="M105 723q-26 -1 -42 -8.5t-21.5 -18.5t1 -24t26.5 -25l-11 -29q-33 -6 -47 -18.5t-12.5 -26.5t16 -27t38.5 -20l-19 -49q-43 14 -60.5 44t-6.5 60q6 17 22 32.5t42 23.5q-17 13 -21.5 30.5t2.5 35.5q10 25 39 45.5t72 24.5z" />
    <glyph glyph-name="fongmanthai" unicode="&#xe4f;" horiz-adv-x="512" 
d="M521 211q-9 -45 -35 -85t-62.5 -69t-80.5 -46t-89 -17t-81.5 17t-60.5 46t-33 69t0 85q10 45 36 84t62.5 68.5t80 46.5t88.5 17t82 -17t61 -46.5t33 -68.5t-1 -84zM473 211q8 36 1.5 68t-25.5 55.5t-47.5 37t-64.5 13.5t-70 -13.5t-62.5 -37t-49 -55.5t-28.5 -68t-1 -68
t25.5 -55.5t47 -37.5t64.5 -14t70.5 14t63 37.5t48.5 55.5t28 68zM418 211q-5 -24 -19 -45.5t-33.5 -37t-43 -25t-47.5 -9.5t-43.5 9.5t-32 25t-17.5 37t0 45.5t19 45t33.5 36.5t43 25t47.5 9.5t43.5 -9.5t32 -25t17.5 -36.5t0 -45zM373 211q7 32 -9 52.5t-48 20.5
t-57 -20.5t-32 -52.5t9.5 -52.5t48.5 -20.5t56.5 20.5t31.5 52.5z" />
    <glyph glyph-name="zerothai" unicode="&#xe50;" horiz-adv-x="508" 
d="M519 201q-10 -48 -34 -86.5t-59 -66.5t-79.5 -43t-95.5 -15q-47 0 -84.5 14t-62 40.5t-33.5 63.5t1 83q10 47 34 85.5t59.5 66t79.5 42.5t95 15q47 0 84.5 -14t61.5 -40t33.5 -62.5t-0.5 -82.5zM435 199q5 22 4 51t-12 54.5t-34 43t-61 17.5q-37 0 -66 -14.5t-51 -39
t-36.5 -56t-21.5 -65.5q-5 -21 -4 -49.5t11.5 -54t33 -43.5t61.5 -18q36 0 65.5 14.5t51.5 39t37 56t22 64.5z" />
    <glyph glyph-name="onethai" unicode="&#xe51;" horiz-adv-x="508" 
d="M518 201q-14 -65 -48.5 -108t-85 -68.5t-114 -34t-135.5 -3.5l-1 45q19 -4 36 -5t34 -1q32 1 68 9.5t68.5 28.5t57.5 52.5t35 81.5q6 30 3 60t-16.5 53.5t-38 38.5t-60.5 15q-54 0 -95 -24.5t-55 -72.5q-5 -15 -5.5 -31.5t7 -30t23.5 -22t43 -8.5q-11 -14 -21.5 -27
t-18.5 -23q-39 -1 -63.5 9.5t-38 27.5t-17 37t0.5 38q8 39 31.5 69.5t56.5 51t74.5 31t85.5 10.5q48 0 87 -14.5t65 -40.5t36.5 -62.5t0.5 -81.5z" />
    <glyph glyph-name="twothai" unicode="&#xe52;" horiz-adv-x="540" 
d="M558 220q-15 -69 -42.5 -113.5t-64.5 -70.5t-82.5 -36t-96.5 -10q-115 0 -164 47t-29 141l64 301q2 9 1.5 22t-4.5 25h49q20 0 33 4l-74 -349q-9 -42 -1.5 -72.5t26.5 -50t46.5 -29t58.5 -9.5q39 0 71.5 10t58.5 32.5t45.5 58t31.5 87.5q4 17 7.5 41.5t1.5 47t-13 38
t-36 15.5q-19 0 -36 -17.5t-25 -37.5h-12q2 23 -8 39.5t-29 15.5q-20 -1 -38.5 -19t-27.5 -52l-30 -8q1 57 22 91t46 45q26 12 49 -1t30 -65q32 53 67 67.5t63 0.5q29 -15 44 -60t-2 -129z" />
    <glyph glyph-name="threethai" unicode="&#xe53;" horiz-adv-x="539" 
d="M549 190q-6 -29 -17.5 -58t-26 -55.5t-31.5 -47t-33 -31.5q-13 -8 -18 -1l-33 41q28 19 48.5 60t30.5 89q18 84 4.5 122.5t-41.5 38.5q-25 0 -54.5 -29.5t-50.5 -83.5h-22q1 55 -14 84.5t-38 29.5q-29 0 -56.5 -38t-44.5 -119q-5 -27 -6 -57.5t4 -50.5q5 -17 15 -27
t35 -4l3 -7l-78 -48q-10 -5 -18 -3t-18 17q-19 31 -22 79.5t8 102.5q11 49 31.5 87.5t46 64.5t53.5 39.5t53 13.5q29 0 50 -16.5t28 -50.5q28 35 57.5 51.5t57.5 15.5q26 -1 48 -16.5t36.5 -42.5t18.5 -65t-6 -85z" />
    <glyph glyph-name="fourthai" unicode="&#xe54;" horiz-adv-x="542" 
d="M625 466q-7 -45 -31 -69t-63 -37q-40 -12 -87.5 -11.5t-86.5 0.5q-29 0 -60.5 -8t-60 -26t-50.5 -48t-31 -74q-7 -34 -2 -62t28 -47.5t68.5 -29.5t119.5 -8q-41 15 -60.5 32.5t-26 34t-5 30.5t3.5 22q8 38 34.5 60.5t58.5 22.5q14 0 34.5 -1.5t36.5 -7.5l-19 -30
q-25 7 -49 -6t-33 -54q-5 -21 5 -38t26.5 -29t36.5 -18.5t36 -6.5h34q3 1 9 2.5t11 5.5l-33 -65q-47 1 -78.5 0.5t-56.5 -1.5t-49 -2t-57 -1q-32 0 -64.5 12t-56.5 36.5t-35 61.5t0 87q10 48 35.5 85t62.5 63t83.5 39.5t98.5 13.5q33 0 66 -1.5t67 7.5q26 6 47.5 23t26.5 49
z" />
    <glyph glyph-name="fivethai" unicode="&#xe55;" horiz-adv-x="542" 
d="M625 467q-7 -45 -31 -69.5t-63 -36.5q-40 -13 -87.5 -12t-86.5 1q-29 0 -60.5 -8t-60 -26.5t-50 -48.5t-30.5 -74q-8 -33 -3.5 -61t28 -47.5t69 -30t119.5 -8.5q-41 15 -60.5 33t-26 34.5t-5 30.5t3.5 21q8 38 35 61.5t59 23.5q14 0 34 -2.5t36 -8.5l-19 -30
q-25 7 -49 -6t-33 -54q-5 -21 5 -38t26.5 -29t36.5 -18.5t36 -6.5h10.5t6 0.5t6 0.5h11.5q3 0 9 1.5t11 5.5l-33 -64q-47 1 -78.5 0.5t-56.5 -2t-49 -2.5t-57 -1q-32 0 -64.5 12t-56.5 36.5t-35 61.5t0 87q15 72 63 120t117 68q-4 11 0 27q6 31 37 51t67 20q16 0 31 -4.5
t25.5 -13t15.5 -22t1 -31.5q-1 -9 -5 -15q34 0 61 7q26 7 47.5 23.5t26.5 48.5zM386 409q4 18 -6.5 28t-30.5 10q-19 0 -33.5 -10t-18.5 -28q-3 -15 7 -24t30 -9t34.5 9t17.5 24z" />
    <glyph glyph-name="sixthai" unicode="&#xe56;" horiz-adv-x="510" 
d="M521 198q-21 -97 -88.5 -151.5t-167.5 -54.5q-77 0 -111 35t-37 99l78 20q-5 -8 -6 -14t0 -14q3 -32 25 -56.5t61 -24.5q57 0 101.5 42t61.5 120q11 53 -6.5 90t-51 53t-77 9t-84.5 -41h-55q-2 32 -10 71t-21 70q-3 8 -13 11l69 33q18 -24 21 -65t-5 -89q37 32 80.5 47
t85.5 13q37 -1 68.5 -14t53 -38t30 -62.5t-1.5 -88.5z" />
    <glyph glyph-name="seventhai" unicode="&#xe57;" horiz-adv-x="655" 
d="M721 501q6 -32 2 -82.5t-29 -119.5q-12 -34 -31.5 -75t-50.5 -82t-74.5 -80t-103.5 -69q-8 -6 -14 1l-36 45q28 20 49.5 61t31.5 86q18 84 4.5 122.5t-41.5 38.5q-25 0 -54.5 -29.5t-50.5 -83.5h-22q1 55 -14 84.5t-38 29.5q-26 0 -55 -38t-46 -119q-5 -27 -6 -57.5
t4 -50.5q4 -17 15.5 -27t34.5 -5l3 -6l-78 -48q-10 -5 -18.5 -3t-17.5 17q-19 31 -22 80t8 101q11 50 31.5 88.5t46 64.5t53 39.5t53.5 13.5q29 0 50 -16.5t28 -50.5q28 35 57.5 51.5t57.5 15.5q26 -1 48 -16.5t35.5 -42.5t17 -65t-6.5 -85q-6 -28 -22 -62t-34 -60
q22 18 43.5 44t39.5 55t32 59.5t22 58.5q15 49 19.5 94.5t2.5 74.5z" />
    <glyph glyph-name="eightthai" unicode="&#xe58;" horiz-adv-x="550" 
d="M625 485q-12 -44 -27.5 -72.5t-38.5 -44.5t-55 -21.5t-76 -4.5l-125 2q-49 1 -89.5 -37t-56.5 -113q-5 -23 -8 -49t0.5 -48t17 -37t40.5 -15q18 0 33.5 9.5t28 24.5t21.5 32.5t14 33.5h19q-1 -16 1 -33.5t9 -32.5t19 -24.5t32 -9.5q21 0 35.5 9.5t24 23t15 28.5t8.5 26
q2 14 2 35t-13 33l83 46q12 -18 14 -43.5t-4.5 -54t-20.5 -57t-35 -51.5t-47.5 -37t-58.5 -14q-13 0 -27.5 3.5t-27 12t-22 23.5t-12.5 39q-14 -24 -30 -39t-31.5 -23t-30 -11t-26.5 -3q-30 0 -55.5 9.5t-41 32.5t-19.5 61.5t8 97.5q13 60 39.5 99t59.5 62t69 32t68 9
q5 0 23 -0.5t39 -1.5q12 -1 25.5 -1h28.5h35t35 7q40 13 57 64q5 13 -1 27h4q6 -1 16.5 -1h17.5q9 -1 19 -1t18 -2z" />
    <glyph glyph-name="ninethai" unicode="&#xe59;" horiz-adv-x="577" 
d="M644 507q10 -43 5.5 -78.5t-20.5 -59t-42 -32t-57 2.5q-18 6 -37.5 5.5t-34 -9.5t-21 -28t1.5 -50l67 -258h-80l-71 276q-9 35 -27 51.5t-41 16.5q-20 0 -39.5 -9.5t-37 -27.5t-31 -43.5t-20.5 -56.5q-6 -30 -6.5 -59t8 -51.5t26 -36t47.5 -12.5q8 0 16 2.5t13 6.5
l13 -57q-27 -8 -48 -8q-52 0 -86 18.5t-52.5 48.5t-21.5 68.5t7 77.5q9 37 28.5 72t47.5 62t64 43.5t78 16.5q8 0 21 -1.5t27.5 -9t28 -24t22.5 -46.5q6 24 12.5 38t13 21t12 9.5t9.5 3.5q13 2 33.5 -1.5t33.5 -4.5q51 -5 67.5 19.5t8.5 75.5q-1 5 -3 14.5t-8 14.5z" />
    <glyph glyph-name="angkhankhuthai" unicode="&#xe5a;" horiz-adv-x="660" 
d="M686 414q-12 -16 -21.5 -33.5t-15.5 -47.5l-95 -444q-6 2 -13.5 3.5t-18.5 1.5h-54q9 13 13 27t11 30l98 463h96zM516 414q-12 -16 -21.5 -33.5t-15.5 -47.5l-95 -444q-6 2 -13.5 3.5t-18.5 1.5h-54q9 13 14.5 27t9.5 30l43 206q-27 -20 -49 -31t-40.5 -16.5t-32.5 -6.5
t-24 -1q-32 0 -57 11t-41 32t-21 51t3 69q7 33 24 61.5t41 49.5t54 32.5t63 11.5h7l3 -36q-9 -1 -18 -5q-11 -6 -26 -16t-29.5 -24t-26.5 -34.5t-18 -47.5q-11 -48 11 -79t74 -31q20 0 40 8.5t37 23t29.5 34t17.5 41.5l34 160h96z" />
    <glyph glyph-name="khomutthai" unicode="&#xe5b;" horiz-adv-x="970" 
d="M748 181q-29 -21 -61.5 -45t-61.5 -46l-92 95q-20 -36 -49 -66.5t-63.5 -53.5t-72 -36t-73.5 -13q-41 0 -73 15t-53 41.5t-28.5 62t1.5 76.5t32 77t55.5 62.5t71.5 42t80 15.5q63 0 104 -34q-8 -11 -12.5 -17t-8.5 -10.5t-8.5 -9.5t-11.5 -14q-8 4 -26 9.5t-35 5.5
q-25 0 -47 -9.5t-39 -27t-29.5 -40.5t-18.5 -50q-11 -51 11 -81t73 -30q38 0 73.5 23t65.5 55.5t53 67.5t36 58l113 -120q16 12 39 28t41 29h238l-13 -60h-211z" />
    <glyph glyph-name="ZWSP" unicode="&#x200b;" 
 />
    <glyph glyph-name="endash" unicode="&#x2013;" horiz-adv-x="500" 
d="M523 237l-15.5 -15.5t-14.5 -15.5q-8 -9 -11 -10t-12 -1h-357h-22.5t-22.5 -2q8 8 15 15.5t14 15.5q8 9 11 10t12 1h357h22.5t23.5 2z" />
    <glyph glyph-name="emdash" unicode="&#x2014;" horiz-adv-x="1000" 
d="M1018 237l-15.5 -15.5t-14.5 -15.5q-8 -9 -11 -10t-12 -1h-847h-22.5t-22.5 -2q8 8 15 15.5t14 15.5q8 9 11 10t12 1h847h22.5t23.5 2z" />
    <glyph glyph-name="quoteleft" unicode="&#x2018;" horiz-adv-x="166" 
d="M260 548q-29 -20 -54 -41.5t-43 -52.5q20 3 33.5 -1t21 -11.5t9.5 -17.5t0 -20q-5 -21 -25 -37.5t-41 -16.5q-27 0 -40 19t-7 46q6 29 25.5 53.5t43.5 47.5q11 11 29.5 24.5t32.5 13.5q9 0 21 -3z" />
    <glyph glyph-name="quoteright" unicode="&#x2019;" horiz-adv-x="166" 
d="M247 489q-6 -29 -25.5 -53.5t-43.5 -47.5q-11 -11 -29.5 -24.5t-32.5 -13.5q-10 0 -20 3l5 3q29 20 54 41.5t43 52.5q-20 -3 -33.5 1t-21 11.5t-9.5 17.5t0 20q5 21 25 37.5t41 16.5q27 0 40 -19t7 -46z" />
    <glyph glyph-name="quotedblleft" unicode="&#x201c;" horiz-adv-x="359" 
d="M451 548q-29 -20 -54 -41.5t-43 -52.5q20 3 33.5 -1t21 -11.5t9.5 -17.5t0 -20q-5 -21 -25 -37.5t-41 -16.5q-27 0 -40 19t-7 46q6 29 25.5 53.5t43.5 47.5q11 11 29.5 24.5t32.5 13.5q9 0 21 -3zM260 548q-29 -20 -54 -41.5t-43 -52.5q20 3 33.5 -1t21 -11.5t9.5 -17.5
t0 -20q-5 -21 -25 -37.5t-41 -16.5q-27 0 -40 19t-7 46q6 29 25.5 53.5t43.5 47.5q11 11 29.5 24.5t32.5 13.5q9 0 21 -3z" />
    <glyph glyph-name="quotedblright" unicode="&#x201d;" horiz-adv-x="359" 
d="M438 489q-6 -29 -25.5 -53.5t-44.5 -47.5q-11 -11 -29 -24.5t-32 -13.5q-10 0 -20 3l4 3q29 20 54.5 41.5t43.5 52.5q-20 -3 -33.5 1t-21 11.5t-9.5 17.5t0 20q5 21 25 37.5t41 16.5q26 0 39.5 -19t7.5 -46zM247 489q-6 -29 -25.5 -53.5t-44.5 -47.5q-11 -11 -29 -24.5
t-32 -13.5q-10 0 -20 3l4 3q29 20 54.5 41.5t43.5 52.5q-20 -3 -33.5 1t-21 11.5t-9.5 17.5t0 20q5 21 25 37.5t41 16.5q26 0 39.5 -19t7.5 -46z" />
    <glyph glyph-name="bullet" unicode="&#x2022;" horiz-adv-x="290" 
d="M305 198q-5 -24 -19 -45.5t-33.5 -37t-43 -25t-47.5 -9.5t-43.5 9.5t-32 25t-17.5 37t0 45.5t18.5 45t33 36.5t43 25t47.5 9.5t43.5 -9.5t32.5 -25t18 -36.5t0 -45z" />
    <glyph glyph-name="Euro" unicode="&#x20ac;" horiz-adv-x="572" 
d="M161 234q1 11 3 22.5t4 23.5q3 13 6.5 25.5t8.5 25.5h-32q-16 0 -29 -1.5t-32 -7.5h-2l15 71h2q18 -6 30 -7t27 -1h45q24 42 58 77.5t77 60t93 36t106 5.5l109 -11l-13 -77q-42 24 -89.5 32t-93 -2.5t-86 -40t-68.5 -80.5h124q18 0 28 1.5t25 6.5h2l-15 -71h-2
q-13 6 -22.5 7.5t-26.5 1.5h-136l-6 -22t-5 -22q-4 -14 -5.5 -27t-2.5 -26h134q18 0 27.5 1.5t25.5 6.5h2l-15 -71h-2q-13 6 -22.5 7.5t-26.5 1.5h-118q11 -60 53.5 -95.5t111.5 -39.5q29 -2 64.5 5.5t70.5 21.5l-39 -72q-36 -6 -73 -9t-69 -3q-43 0 -81 12.5t-67.5 37
t-48.5 60t-24 82.5h-42q-16 0 -29 -1.5t-32 -7.5h-2l15 71h2q18 -6 30 -7t27 -1h31z" />
    <glyph glyph-name="trademark" unicode="&#x2122;" horiz-adv-x="672" 
d="M608 238q7 6 10.5 11.5t5.5 17.5l28 245l-9 -21l-126 -255q-23 12 -28.5 27.5t-6.5 29.5l-27 196l-2 14l-72 -236q-3 -10 -0.5 -17t4.5 -12h-55q8 6 14 16t8 18l81 252q5 15 3.5 23.5t-6.5 16.5h65l35 -241l121 241h69q-5 -6 -8.5 -12t-5.5 -16l-27 -245q-2 -18 0 -32
t8 -21h-79zM354 522q-9 13 -31 13q-9 1 -22.5 -0.5t-23.5 -4.5l-54 -257q-6 -23 4 -35h-75q16 14 20 35l54 258q-8 2 -21 2.5t-21 0.5q-25 -1 -48 -13l21 44l7 -1h209z" />
    <glyph glyph-name="uni25CC" unicode="&#x25cc;" horiz-adv-x="670" 
d="M259 179l-48 -15l17 47q13 -18 31 -32zM312 413l23 45l22 -44q-5 1 -10.5 1h-10.5q-6 0 -12 -0.5t-12 -1.5zM355 156l-20 -42l-21 42q5 -1 11 -1.5t11 -0.5t9.5 0.5t9.5 1.5zM465 307l42 -22l-42 -19q1 5 1.5 9.5t0.5 9.5t-0.5 11t-1.5 11zM208 264l-45 23l45 22
q-1 -6 -1.5 -12t-0.5 -12q0 -5 0.5 -10.5t1.5 -10.5zM231 363l-13 46l45 -16q-18 -11 -32 -30zM440 205l12 -41l-41 13q18 13 29 28zM410 393l49 16l-17 -47q-14 18 -32 31z" />
    <glyph glyph-name="thothannobasethai" unicode="&#xf700;" horiz-adv-x="399" 
d="M468 473q-9 -28 -32.5 -52t-51.5 -38q23 -26 30.5 -66t-6.5 -100q-32 -133 -106.5 -187t-189.5 -36l-4 214q0 21 -7.5 39t-24.5 23l1 9h46h25.5t26.5 5l5 -189q0 -8 -0.5 -23t-6.5 -26q66 2 103 43.5t56 113.5q13 49 8.5 83t-21 56t-41.5 33t-53 13q-30 2 -62 -9t-62 -23
l24 48q35 13 67 19t74 5q27 0 51.5 -6.5t44.5 -20.5q20 20 32 40.5t15 31.5q25 -1 59 0z" />
    <glyph glyph-name="saraileftthai" unicode="&#xf701;" 
d="M-43 499q-23 4 -40.5 4.5t-42.5 1.5l-115 3q-17 1 -40.5 -0.5t-49.5 -4.5l12 16q11 16 17.5 22.5t14.5 12.5q4 3 13 4.5t16 1.5l170 -2q7 0 15 -1.5t12 -3.5q4 -4 8.5 -10t6.5 -19z" />
    <glyph glyph-name="saraiileftthai" unicode="&#xf702;" 
d="M-25 629q-3 -8 -5 -13.5t-4 -11.5l-21 -100l2 -4q-21 3 -38 3.5t-40 1.5l-106 3q-17 1 -40 0t-49 -5l11 15q10 13 17.5 21.5t13.5 13.5q5 3 15.5 5.5t15.5 2.5l135 -3l9 46q3 12 0 25h84z" />
    <glyph glyph-name="saraueleftthai" unicode="&#xf703;" 
d="M-25 572q-6 -29 -29.5 -48.5t-62.5 -18.5q-9 0 -18 0.5t-18 0.5l-81 2q-20 1 -42.5 -0.5t-47.5 -4.5q8 11 19 26t23 22q7 4 16.5 6.5t14.5 1.5q5 1 15 1h13t14 -1q2 -1 7 -0.5t10 0.5h12q-1 7 0.5 8.5t1.5 6.5v1q5 28 27.5 44.5t61.5 16.5t54.5 -17.5t9.5 -46.5zM-58 572
q4 20 -8 29.5t-28 9.5t-32 -9.5t-20 -29.5q-5 -20 7 -29.5t28 -9.5t32 9.5t21 29.5z" />
    <glyph glyph-name="saraueeleftthai" unicode="&#xf704;" 
d="M-30 629q-4 -8 -5.5 -13.5t-3.5 -11.5l-20 -96l1 -8q-17 3 -35 3q-13 1 -26 1t-27 1l-96 3q-17 1 -40 -0.5t-49 -4.5l17 22q13 18 25 27q7 4 16.5 6t14.5 2l55 -1l9 45q3 13 1 25h54l-16 -73l57 -1l16 74h52z" />
    <glyph glyph-name="maieklowleftthai" unicode="&#xf705;" 
d="M-36 644q-3 -8 -5 -13t-3 -11l-22 -100q-1 -6 -1.5 -12t-0.5 -13h-81q7 15 8 24l22 100q1 6 1.5 12.5t-1.5 12.5h83z" />
    <glyph glyph-name="maitholowleftthai" unicode="&#xf706;" 
d="M-9 575q-34 -25 -70.5 -38t-70.5 -17.5t-63.5 -1.5t-48.5 12q16 24 23.5 50.5t2.5 47.5l75 18q5 -11 0 -30.5t-26 -52.5q19 -4 43.5 -2t49 8t48 15t41.5 20z" />
    <glyph glyph-name="maitrilowleftthai" unicode="&#xf707;" 
d="M9 653q0 -25 -8 -48t-20.5 -42t-29 -32.5t-33.5 -19.5l-35 12q9 14 10 25.5t-2.5 20t-11 13t-15.5 4.5q-20 0 -33 -19q-2 10 -9 14.5t-15 4.5q-9 0 -18 -4.5t-16 -13t-10.5 -20t-0.5 -26.5l-37 -14q-8 7 -12.5 21t2.5 37q4 16 13.5 28t20.5 20t22.5 12t19.5 4
q21 0 32 -5.5t17 -19.5q21 25 55 25q23 0 37 -16t9 -38q0 -4 -1 -7t-1.5 -6.5t-1.5 -6.5q8 9 15 22.5t11.5 27.5t7 27.5t2.5 24.5z" />
    <glyph glyph-name="maichattawalowleftthai" unicode="&#xf708;" 
d="M-20 568q-7 2 -13.5 2.5t-11.5 0.5h-56l-9 -46q-3 -12 -3 -25h-57q2 6 4.5 12t4.5 13l9 46h-56q-8 0 -13.5 -0.5t-12.5 -4.5q2 8 4.5 20.5t6.5 29.5q11 -4 24 -4h56l10 45q1 5 1 11.5t-2 13.5h60q-3 -7 -4.5 -13t-3.5 -12l-10 -45h56q12 0 26 3z" />
    <glyph glyph-name="thanthakhatlowleftthai" unicode="&#xf709;" 
d="M8 646q-12 -11 -28.5 -19t-30.5 -15t-23.5 -19t-14 -26t-3.5 -28t8 -25l-54 -21q-14 9 -19 24t-1.5 31.5t15 33.5t29.5 29q13 9 31.5 17.5t33.5 15.5q12 5 23.5 10.5t20.5 12.5z" />
    <glyph glyph-name="maieklowrightthai" unicode="&#xf70a;" 
d="M108 644q-3 -8 -5 -13t-3 -11l-22 -100q-1 -6 -1.5 -12t-0.5 -13h-81q7 15 8 24l22 100q1 6 1.5 12.5t-1.5 12.5h83z" />
    <glyph glyph-name="maitholowrightthai" unicode="&#xf70b;" 
d="M147 583q-53 -30 -103 -46t-93.5 -22t-78.5 -3t-56 13q18 26 25.5 54.5t2.5 50.5l82 19q5 -12 0 -32.5t-27 -53.5q49 -11 114.5 2.5t135.5 45.5z" />
    <glyph glyph-name="maitrilowrightthai" unicode="&#xf70c;" 
d="M143 696q0 -30 -9.5 -58.5t-25 -52.5t-35.5 -41t-41 -24l-39 14q10 17 12 32t-2.5 26.5t-14.5 18t-23 6.5q-23 0 -44 -27q-11 27 -36 27q-12 0 -24.5 -7.5t-21.5 -19.5t-13 -27t0 -31l-40 -16q-8 8 -13.5 25.5t2.5 46.5q5 18 16 32.5t24.5 24t27.5 14.5t25 5
q17 0 32.5 -6t28.5 -29q23 23 39.5 29t31.5 6q20 0 32 -8t17.5 -21t6 -28.5t-3.5 -31.5q22 23 35.5 57.5t14.5 68.5z" />
    <glyph glyph-name="maichattawalowrightthai" unicode="&#xf70d;" 
d="M181 596q-7 2 -13.5 2.5t-11.5 0.5h-71l-13 -61q-1 -6 -1.5 -12t-0.5 -13h-67q4 8 5.5 14t2.5 11l13 61h-71q-8 0 -13.5 -0.5t-12.5 -4.5q2 8 4.5 20.5t6.5 29.5q11 -4 24 -4h71l14 65q1 5 1 11.5t-2 13.5h70q-3 -7 -4.5 -13t-3.5 -12l-14 -65h71q12 0 26 3z" />
    <glyph glyph-name="thanthakhatlowrightthai" unicode="&#xf70e;" 
d="M153 661q-16 -17 -38 -30t-36 -20q-32 -18 -41 -46.5t9 -51.5l-54 -21q-15 9 -20 25t-1 33.5t16 34.5t30 30q17 11 35 19.5t36 17.5q12 6 25 13.5t24 16.5z" />
    <glyph glyph-name="yoyingnobasethai" unicode="&#xf70f;" horiz-adv-x="671" 
d="M734 414q-4 -3 -8 -9.5t-5 -10.5l-57 -268q-6 -29 -20.5 -53.5t-38 -43t-56 -29t-75.5 -10.5q-87 0 -117.5 37t-18.5 95l39 185q5 22 -1 36.5t-18 23t-26.5 12t-26.5 3.5q-29 0 -60.5 -11t-65.5 -34q13 -11 16.5 -18.5t1.5 -15.5l-47 -224q-5 -25 -2.5 -39.5t20.5 -23.5
l-3 -16h-76q-11 0 -18.5 -2t-15.5 -6l54 254q7 32 7 59t-20 48q22 12 43.5 24.5t47 23t56.5 17t71 6.5q56 0 86 -13.5t42 -35t11 -49t-7 -55.5q-9 -44 -13.5 -64.5t-7 -31.5t-4.5 -20.5t-6 -31.5q-10 -48 9.5 -73t56.5 -25q38 0 67 26.5t39 71.5l57 271q2 5 0 10.5t-5 9.5
h95z" />
    <glyph glyph-name="maihanakatleftthai" unicode="&#xf710;" 
d="M-19 568q-57 -37 -104.5 -49t-81 -7t-52 23t-17.5 41l88 26q2 -21 20 -30.5t39 -11.5q20 -1 51 9t64 27z" />
    <glyph glyph-name="nikhahitleftthai" unicode="&#xf711;" 
d="M-37 567q-7 -31 -32 -49t-67 -18t-59.5 18t-10.5 49q6 30 31.5 48.5t67.5 18.5t59 -18t11 -49zM-80 567q4 19 -7.5 27.5t-26.5 8.5t-29.5 -8.5t-18.5 -27.5q-5 -19 6.5 -27.5t26.5 -8.5t29.5 8.5t19.5 27.5z" />
    <glyph glyph-name="maitaikhuleftthai" unicode="&#xf712;" 
d="M33 681q-11 -14 -26.5 -22t-42.5 -8q-11 0 -30.5 1t-39.5 2t-37 2t-24 1q-25 0 -42.5 -16t-22.5 -36q-4 -17 1 -30.5t31 -13.5q12 0 24 7.5t23 15.5q5 -8 14.5 -15.5t23.5 -7.5q21 0 28 14.5t1 32.5l62 3q6 -20 0.5 -37.5t-17.5 -30.5t-28 -21t-31 -9q-17 -1 -30.5 5.5
t-29.5 34.5q-23 -26 -40.5 -33.5t-33.5 -6.5q-40 2 -53.5 27.5t-5.5 58.5q3 16 12 32.5t23 29.5t32.5 21t41.5 8q47 0 82 -1.5t73 -1.5q11 0 21 4.5t18 10.5z" />
    <glyph glyph-name="maiekupperleftthai" unicode="&#xf713;" 
d="M13 820q-3 -8 -5 -13.5t-4 -11.5l-19 -89q-1 -7 -1.5 -13.5t0.5 -11.5h-70q4 7 6 13.5t4 11.5l18 88q4 16 0 26h71z" />
    <glyph glyph-name="maithoupperleftthai" unicode="&#xf714;" 
d="M88 755q-34 -25 -72 -39.5t-74 -20.5t-67 -4t-52 11q17 24 24.5 50.5t2.5 47.5l75 18q4 -11 -0.5 -30.5t-26.5 -52.5q21 -4 46 -2t51.5 7.5t51 14.5t43.5 20z" />
    <glyph glyph-name="maitriupperleftthai" unicode="&#xf715;" 
d="M89 826q-1 -24 -8.5 -46.5t-19.5 -41.5t-27 -32.5t-31 -18.5l-32 11q15 26 7 44t-28 20q-20 1 -39 -18q-11 18 -28 18q-9 0 -19 -5t-18 -13.5t-12.5 -20.5t-2.5 -25l-32 -13q-5 6 -9 19.5t2 34.5q4 15 13 27t19.5 20t21 12.5t18.5 4.5q16 0 27.5 -3.5t25.5 -25.5
q22 21 36.5 24.5t25.5 4.5q17 0 27.5 -7.5t14.5 -19t3 -26t-6 -27.5q11 12 21 27.5t16 39.5q2 8 3.5 17t0.5 20z" />
    <glyph glyph-name="maichattawaupperleftthai" unicode="&#xf716;" 
d="M75 733q-11 3 -11 4q-1 1 -6 1h-60l-11 -51q-1 -3 0 -7v-4v-8h-65q2 4 5 9t5 9l11 52h-58q-5 0 -9 -1t-13 -5q2 10 4 21t6 28q8 -3 11 -4t6 -1h61l10 49q2 9 -1 20h65q-2 -5 -5 -9.5t-4 -9.5l-10 -50h60q4 0 9.5 2t9.5 3z" />
    <glyph glyph-name="thanthakhatupperleftthai" unicode="&#xf717;" 
d="M56 753q-11 -10 -25.5 -19t-26.5 -15t-20.5 -17t-12.5 -24t-3.5 -26t6.5 -23l-48 -19q-12 9 -16.5 23t-1.5 29t13 29.5t27 24.5q13 8 24 13t25 10q11 5 23.5 11t26.5 17z" />
    <glyph glyph-name="saraulowthai" unicode="&#xf718;" 
d="M-94 -295h-74l12 57q5 18 4.5 32t-14.5 21l2 6h67q16 0 29 5z" />
    <glyph glyph-name="sarauulowthai" unicode="&#xf719;" 
d="M-87 -265q-1 -6 -7 -16.5t-21.5 -21t-42.5 -18.5t-71 -8t-67 8t-33.5 18.5t-11.5 21t0 16.5l5 27q5 18 4.5 32t-14.5 21l1 6h68q20 0 29 4l-16 -76q-7 -29 5 -43t36 -14q23 0 40.5 13t24.5 44l15 72h74z" />
    <glyph glyph-name="phinthulowthai" unicode="&#xf71a;" 
d="M-71 -228q-5 -20 -22.5 -35t-37.5 -15t-32 15t-7 35q4 20 22 35t38 15t31.5 -15t7.5 -35z" />
    <glyph glyph-name="lochula.short" unicode="&#xf71d;" horiz-adv-x="549" 
d="M663 618q-7 -29 -24 -63t-47 -57q21 -17 26 -39t1.5 -45.5t-13 -47.5t-18.5 -43q-18 -42 -41 -90t-46 -94t-43.5 -85.5t-33.5 -63.5q-8 2 -16 5t-19 7q-15 6 -31.5 19.5t-17.5 32.5q-2 42 -3.5 93.5t-3.5 102.5l-138 -260q-8 2 -14 4.5t-17 6.5q-11 5 -22 24t-12 37
l-18 291q-1 12 -7.5 29t-17.5 25l2 7h38h11t13 1q9 0 19.5 1.5t19.5 5.5l15 -345l125 236q-2 28 -3 47q-1 18 -1.5 34.5t-0.5 20.5h78l10 -372q23 49 42.5 88t36 72.5t30.5 63.5t26 61q13 31 19 55.5t6 45t-5.5 38t-15.5 34.5q19 22 34.5 53.5t20.5 63.5q25 -1 56 0z" />
    <glyph glyph-name="rulakkhangyao" unicode="&#xf881;" horiz-adv-x="581" 
d="M422 -210q5 4 8.5 10t5.5 11l107 504q12 58 -33 70q-22 7 -71 -4q15 -22 14.5 -51t-7.5 -59l-97 -457q-5 -12 4 -24h-95q5 4 9 11t6 12l105 494q4 21 -2 35.5t-17.5 23.5t-26 12.5t-26.5 3.5q-30 0 -61 -11t-65 -34q13 -11 16.5 -18t1.5 -15q-9 -41 -14.5 -66.5t-9.5 -42
t-6 -27t-4.5 -22t-5.5 -27t-8 -41.5q-5 -25 -2.5 -39t21.5 -23l-3 -16h-74q-11 0 -19 -1.5t-17 -4.5l54 253q6 32 6.5 58.5t-19.5 47.5q22 12 43.5 24.5t47 23t56.5 17t71 6.5q42 0 67.5 -7t41.5 -20q33 16 62.5 23t51.5 5q26 -2 43.5 -11t27.5 -22.5t13 -30t0 -32.5
l-110 -517q-3 -12 4 -22h-94z" />
    <glyph glyph-name="lulakkhangyao" unicode="&#xf882;" horiz-adv-x="581" 
d="M422 -210q5 4 8.5 10t5.5 11l107 504q12 58 -33 70q-22 7 -71 -4q15 -22 14.5 -51t-7.5 -59l-97 -457q-5 -12 4 -24h-95q5 4 9 11t6 12l105 494q4 21 -2 35.5t-17.5 23.5t-26 12.5t-26.5 3.5q-30 0 -61 -11t-65 -34q13 -11 16.5 -18t1.5 -15q-13 -62 -22 -103.5
t-16 -74.5t-13.5 -63t-14.5 -69q-8 3 -15 4.5t-18 1.5h-74l3 16q23 9 32 23t14 39l36 169q6 32 6.5 58.5t-19.5 47.5q22 12 43.5 24.5t47 23t56.5 17t71 6.5q42 0 67.5 -7t41.5 -20q33 16 62.5 23t51.5 5q26 -2 43.5 -11t27.5 -22.5t13 -30t0 -32.5l-110 -517q-3 -12 4 -22
h-94z" />
    <glyph glyph-name="yamakkanleftthai" 
d="M4 723q-25 -1 -41 -8.5t-21 -18.5t1.5 -24t26.5 -25l-11 -29q-33 -6 -47 -18.5t-13 -26.5t15.5 -27t38.5 -20l-18 -49q-43 14 -61 44t-7 60q6 17 22.5 32.5t42.5 23.5q-17 13 -21.5 30.5t2.5 35.5q10 25 39 45.5t71 24.5z" />
    <glyph glyph-name="saraamleft" horiz-adv-x="259" 
d="M-14 567q-7 -31 -31.5 -49t-66.5 -18t-60 18t-11 49q7 30 32 48.5t67 18.5t59.5 -18t10.5 -49zM141 0q12 9 14 21l63 297q6 25 -2.5 41t-27.5 21t-46.5 0.5t-58.5 -19.5l12 29q51 31 91 35t66.5 -9t38 -37.5t5.5 -49.5l-65 -307q-2 -13 5 -22h-95zM-57 567q4 19 -7 27.5
t-26 8.5t-30 -8.5t-19 -27.5t7 -27.5t26 -8.5t30 8.5t19 27.5z" />
    <glyph glyph-name="uni0E33.alt1" horiz-adv-x="259" 
d="M-14 567q-7 -31 -31.5 -49t-66.5 -18t-60 18t-11 49q7 30 32 48.5t67 18.5t59.5 -18t10.5 -49zM141 0q12 9 14 21l63 297q6 25 -2.5 41t-27.5 21t-46.5 0.5t-58.5 -19.5l12 29q51 31 91 35t66.5 -9t38 -37.5t5.5 -49.5l-65 -307q-2 -13 5 -22h-95zM-57 567q4 19 -7 27.5
t-26 8.5t-30 -8.5t-19 -27.5t7 -27.5t26 -8.5t30 8.5t19 27.5z" />
    </font>
</defs>
</svg>
